<?xml version="1.0" standalone="no"?>
<!DOCTYPE svg PUBLIC "-//W3C//DTD SVG 20010904//EN"
 "http://www.w3.org/TR/2001/REC-SVG-20010904/DTD/svg10.dtd">
<svg version="1.0" xmlns="http://www.w3.org/2000/svg"
 width="1920.000000pt" height="1279.000000pt" viewBox="0 0 1920.000000 1279.000000"
 preserveAspectRatio="xMidYMid meet">

<g transform="translate(0.000000,1279.000000) scale(0.100000,-0.100000)"
fill="#000000" stroke="none">
<path d="M0 11505 c0 -1084 2 -1284 14 -1279 17 6 46 -22 46 -44 0 -31 -27
-95 -44 -104 -15 -8 -16 -67 -16 -640 0 -565 2 -629 15 -618 26 21 65 -3 65
-39 0 -39 -13 -46 -50 -27 l-30 14 0 -1129 c0 -1075 1 -1129 18 -1129 10 0 25
9 35 20 22 26 63 26 77 -1 19 -35 8 -63 -33 -82 -20 -9 -37 -24 -37 -32 0 -9
-12 -18 -30 -22 l-30 -5 0 -3194 0 -3194 1110 0 c813 0 1116 3 1134 11 19 9
29 9 39 1 10 -9 204 -12 702 -12 573 1 692 3 705 14 8 8 32 17 53 21 34 7 39
5 44 -14 5 -18 13 -21 64 -21 l59 0 0 52 c0 28 3 48 7 45 3 -4 5 -27 5 -52
l-2 -45 35 0 c19 0 44 5 55 12 15 10 26 10 53 0 24 -9 157 -12 490 -12 251 0
457 3 457 6 0 4 -16 26 -35 50 -37 45 -46 92 -21 113 7 6 11 22 8 36 -5 29
-22 34 -22 7 0 -46 -79 -71 -100 -33 -15 30 -12 56 10 76 11 10 20 24 20 31 0
7 10 22 21 33 18 17 21 27 15 63 -4 24 -10 62 -13 86 -7 55 -30 55 -63 1 -20
-32 -41 -49 -106 -80 -44 -21 -91 -39 -104 -39 -13 0 -34 -9 -46 -21 l-22 -21
-7 21 c-3 12 -15 21 -26 21 -11 0 -34 10 -51 23 -22 16 -32 18 -35 10 -8 -23
-23 -14 -23 15 0 15 -5 34 -10 42 -7 12 -11 10 -18 -9 -7 -19 -11 -4 -20 67
-14 113 3 293 24 264 12 -15 14 -13 20 16 6 31 19 42 26 23 2 -5 27 3 56 17
50 23 52 26 36 43 -19 21 -16 48 7 62 27 17 49 1 49 -35 0 -32 2 -34 78 -59
42 -14 85 -29 95 -33 15 -7 17 -3 17 33 0 22 -9 78 -19 123 -29 126 -62 282
-82 393 -33 188 -99 479 -113 500 -10 16 -16 142 -7 164 3 10 31 -23 31 -38 0
-9 8 -28 17 -41 11 -15 18 -45 19 -75 0 -27 8 -79 17 -115 9 -36 32 -132 52
-215 20 -82 39 -153 41 -157 2 -4 18 1 35 10 29 17 31 16 50 -7 31 -38 24 -77
-18 -100 -13 -6 -23 -16 -23 -21 0 -19 31 -10 54 15 13 14 32 25 42 25 11 0
25 4 33 9 19 12 5 62 -19 68 -11 3 -20 9 -20 14 0 5 -7 9 -16 9 -12 0 -15 6
-10 24 5 19 0 29 -22 45 -23 16 -28 26 -24 50 2 16 14 39 27 51 23 21 23 22 6
71 -10 27 -26 57 -35 68 -26 29 -12 78 35 121 41 38 48 50 25 50 -13 0 -26 28
-26 58 0 24 19 11 25 -18 4 -16 10 -30 14 -30 12 0 67 -53 80 -77 6 -12 11
-30 11 -40 0 -25 69 -163 69 -140 1 10 -4 27 -9 37 -6 11 -6 21 -1 25 11 6 7
120 -10 277 -6 59 -9 113 -6 121 3 8 2 32 -3 53 -4 22 -11 61 -15 87 -3 27 -9
46 -12 43 -3 -3 -17 4 -31 14 -29 23 -44 26 -36 6 3 -8 1 -30 -4 -50 -8 -28
-8 -36 3 -36 7 0 15 7 19 15 3 8 1 15 -4 15 -5 0 -7 7 -4 15 4 8 10 15 14 15
14 0 23 -41 12 -52 -7 -7 -4 -19 10 -39 29 -39 16 -88 -30 -109 -18 -9 -30
-18 -27 -22 9 -9 -14 -58 -27 -57 -10 0 -10 2 -1 6 17 6 17 33 1 33 -9 0 -9 3
1 9 11 7 10 15 -9 40 -17 25 -21 40 -16 69 6 35 6 120 1 337 -2 92 -11 145
-25 145 -10 0 -21 64 -19 120 5 178 5 178 -18 208 -12 17 -24 50 -27 74 -3 23
-10 64 -17 90 -10 37 -10 56 0 87 14 49 41 60 86 36 35 -20 55 -52 81 -135 9
-30 22 -62 29 -70 22 -26 38 -63 42 -98 3 -19 18 -58 35 -86 34 -58 44 -70 35
-41 -6 18 -5 18 12 -2 16 -20 21 -21 31 -8 26 31 90 5 90 -37 0 -40 -70 -64
-89 -30 -9 15 -10 15 -11 -4 0 -11 6 -43 14 -70 8 -27 17 -74 21 -104 3 -30
10 -86 15 -125 11 -89 47 -233 66 -259 8 -11 14 -33 14 -48 0 -30 40 -143 67
-188 13 -23 20 -27 35 -19 10 5 18 16 18 24 0 24 67 20 80 -4 18 -34 11 -55
-31 -91 -40 -35 -41 -36 -31 -75 6 -22 11 -62 11 -88 -1 -39 4 -53 24 -71 14
-13 31 -47 41 -82 55 -204 184 -555 232 -633 2 -1 13 6 25 18 32 29 67 27 81
-5 11 -24 9 -29 -15 -50 -15 -13 -27 -28 -27 -34 0 -6 -7 -13 -16 -17 -9 -3
-13 -12 -9 -22 4 -9 11 -56 15 -105 7 -76 12 -92 33 -110 13 -12 32 -42 41
-69 10 -26 23 -53 30 -60 7 -7 19 -37 25 -67 13 -58 43 -149 93 -287 l30 -83
1329 0 c731 0 1329 3 1329 6 0 4 -15 26 -34 49 -19 23 -51 64 -72 91 -20 27
-61 73 -91 103 -50 49 -57 52 -79 42 -44 -20 -91 -13 -123 17 -17 15 -31 36
-32 47 -4 52 3 78 27 102 26 26 26 27 15 107 -6 45 -13 98 -17 118 -9 56 2 88
30 88 14 0 39 12 56 26 30 25 31 29 25 79 -6 47 -5 54 13 64 12 6 34 11 50 11
29 0 51 -20 166 -150 22 -25 60 -68 85 -95 25 -28 73 -81 106 -118 61 -69 212
-204 252 -225 13 -7 41 -52 68 -107 25 -51 72 -130 106 -174 l60 -81 4990 0
4989 0 0 6395 0 6395 -5006 0 -5005 0 -28 -31 c-16 -17 -41 -54 -55 -82 -15
-29 -31 -59 -36 -67 -38 -66 -44 -89 -48 -212 -2 -77 -8 -128 -14 -128 -6 0
-8 9 -5 20 3 11 1 22 -4 26 -11 7 -9 113 2 120 17 10 9 23 -13 20 -29 -3 -71
-25 -81 -43 -4 -7 -34 -32 -65 -55 -31 -23 -66 -53 -77 -67 -11 -14 -31 -37
-45 -51 -26 -27 -57 -62 -145 -165 -27 -32 -63 -73 -80 -91 -16 -17 -47 -51
-68 -74 -54 -57 -107 -75 -107 -35 0 7 -5 15 -11 17 -7 2 -13 22 -14 43 -2 36
-6 41 -44 57 -24 10 -49 31 -61 50 -27 44 -27 122 0 163 13 19 20 47 20 78 0
39 8 62 40 116 22 37 40 71 40 77 2 43 96 153 134 154 11 1 77 80 111 133 l17
27 -1143 0 c-1017 0 -1144 -2 -1160 -15 -15 -14 -18 -14 -32 0 -13 13 -39 15
-148 13 l-132 -3 -34 -95 c-19 -52 -45 -133 -59 -180 -13 -46 -35 -107 -49
-135 -13 -27 -31 -67 -39 -88 -9 -22 -24 -41 -35 -44 -16 -4 -20 -17 -25 -81
-3 -43 -13 -98 -21 -123 -8 -26 -15 -58 -15 -72 0 -14 -4 -29 -10 -32 -5 -3
-10 -21 -10 -40 0 -31 -5 -40 -44 -73 -8 -6 -20 -31 -27 -55 -6 -23 -18 -58
-27 -77 -35 -78 -94 -269 -101 -322 -3 -31 -14 -65 -22 -75 -9 -10 -21 -31
-26 -48 -5 -16 -15 -30 -21 -30 -19 0 -23 -12 -31 -92 -4 -43 -15 -94 -24
-113 -34 -76 -67 -164 -67 -184 0 -11 -8 -29 -19 -40 -20 -22 -49 -106 -76
-221 -9 -38 -24 -86 -32 -105 -14 -35 -24 -139 -24 -254 0 -43 -5 -67 -19 -87
-11 -15 -20 -30 -20 -34 0 -4 -16 -29 -35 -55 -44 -60 -45 -80 -5 -80 23 0 33
-7 45 -31 9 -17 16 -43 15 -57 -3 -48 -1 -55 13 -44 7 6 33 10 59 9 43 -2 49
1 87 43 37 42 40 49 39 100 0 33 -7 62 -15 72 -20 22 -13 50 15 64 43 22 82
64 113 126 17 34 37 68 45 76 8 7 25 37 38 65 71 151 96 210 96 222 0 20 28
38 47 30 10 -5 24 -7 31 -6 6 1 12 -6 12 -16 0 -15 2 -15 22 4 l21 22 -24 19
c-20 17 -24 29 -25 78 -1 66 5 83 80 234 29 58 61 128 71 155 10 28 26 61 36
75 9 14 67 131 129 260 148 312 152 319 167 332 21 17 16 -5 -12 -58 -14 -26
-25 -53 -25 -60 0 -30 16 -11 45 51 16 36 35 65 42 65 10 0 8 -11 -7 -40 -11
-22 -20 -46 -19 -53 1 -7 -5 -29 -14 -49 -31 -68 -17 -54 33 36 28 49 50 93
50 98 0 4 5 8 10 8 15 0 12 -16 -10 -60 -25 -49 -25 -53 0 -45 25 8 26 -8 5
-58 -19 -46 -19 -61 0 -53 22 8 19 -7 -15 -74 -17 -33 -30 -66 -30 -74 0 -7
-7 -16 -15 -20 -8 -3 -15 -13 -15 -22 0 -10 -6 -25 -14 -33 -11 -12 -278 -540
-322 -636 -24 -52 -70 -125 -83 -130 -8 -3 -19 -1 -25 5 -25 25 -33 9 -31 -67
2 -85 -12 -123 -84 -233 -20 -30 -47 -77 -60 -103 -21 -42 -23 -50 -11 -73 17
-31 4 -57 -29 -62 -17 -3 -30 -19 -48 -60 -56 -127 -75 -161 -92 -167 -14 -4
-20 -19 -24 -61 -3 -31 -12 -63 -20 -73 -8 -9 -18 -26 -22 -39 -3 -12 -17 -35
-30 -50 -39 -46 -76 -124 -87 -182 -8 -42 -19 -65 -50 -98 -39 -43 -39 -43
-22 -70 10 -15 28 -38 41 -52 30 -32 29 -56 -3 -76 -24 -16 -27 -16 -54 -1
-15 9 -31 17 -34 17 -12 0 -5 -38 9 -50 28 -23 12 -100 -21 -100 -11 0 -14 10
-12 35 1 19 -2 38 -6 42 -10 10 -63 -52 -81 -95 -15 -34 -44 -50 -106 -59 -45
-6 -79 22 -79 65 0 28 31 72 51 72 5 0 19 21 29 48 11 26 36 77 55 114 19 36
32 73 29 82 -8 22 18 76 37 76 24 0 37 20 45 66 6 41 6 41 -24 36 -21 -3 -33
1 -43 16 -8 11 -23 21 -34 23 -28 6 -53 54 -39 76 14 23 118 28 150 8 19 -12
22 -9 52 49 35 69 44 110 12 59 -33 -54 -85 -40 -78 21 2 20 0 36 -4 36 -4 0
-8 7 -8 15 0 20 -23 19 -46 -2 -20 -18 -61 -72 -102 -132 -33 -48 -48 -61 -74
-63 -21 -3 -23 1 -24 52 -1 30 3 69 8 85 5 17 16 55 24 85 18 65 11 129 -14
129 -9 -1 -51 4 -92 9 -60 7 -78 7 -91 -4 -22 -20 -25 -18 -42 24 -16 38 -79
112 -96 112 -5 0 -11 -10 -14 -22 -4 -26 -9 -17 -25 52 -6 27 -7 51 -1 62 5 9
9 34 9 55 0 21 5 45 10 53 7 11 10 4 10 -27 0 -24 4 -43 8 -43 8 0 42 105 42
128 0 7 9 38 20 69 11 32 20 73 20 93 0 32 49 133 50 101 0 -10 7 -11 28 -6
15 5 38 9 52 11 14 1 26 3 28 4 1 2 5 3 10 4 4 0 20 11 35 23 25 19 27 26 21
57 -5 31 -3 36 12 37 11 0 14 3 7 6 -19 7 -17 63 2 63 8 0 14 3 14 8 -1 4 -1
18 0 32 2 37 21 4 21 -37 0 -18 4 -33 9 -33 11 0 21 81 18 157 -2 52 -6 65
-25 78 -16 12 -22 26 -22 53 0 43 27 161 39 176 5 6 12 32 16 57 5 36 3 48
-10 59 -11 9 -19 10 -23 3 -4 -6 -29 -10 -57 -9 l-50 1 3 -33 c2 -20 -5 -46
-17 -68 -18 -31 -75 -241 -96 -357 -8 -41 -21 -55 -37 -39 -13 13 3 123 34
245 10 42 23 112 28 155 4 42 11 85 15 95 5 13 4 18 -6 16 -8 -1 -26 4 -41 11
-21 10 -28 20 -28 42 0 31 27 50 40 28 6 -10 9 -9 12 1 4 11 9 12 26 2 25 -15
25 -14 46 97 47 254 99 491 116 525 25 52 37 120 18 109 -7 -4 -35 -13 -62
-19 -42 -10 -53 -17 -69 -48 -15 -29 -26 -38 -55 -43 -20 -4 -43 -12 -51 -18
-11 -8 -17 -6 -29 12 -8 13 -25 22 -39 22 -13 0 -33 5 -44 11 -17 8 -23 7 -35
-8 -12 -17 -13 -16 -14 9 0 33 -15 44 -29 21 -9 -16 -10 -15 -11 6 0 19 -35
94 -56 119 -1 2 -17 -4 -35 -13 -40 -21 -110 -15 -148 12 -21 16 -32 17 -60 9
-30 -9 -36 -7 -52 13 -24 30 -24 46 2 70 17 16 26 18 47 10 13 -5 26 -8 26 -7
26 43 42 58 71 68 33 11 88 10 123 -1 8 -2 19 13 28 41 9 25 22 50 29 55 7 6
17 28 21 49 7 38 7 39 20 15 l13 -24 7 34 c6 29 9 32 19 18 11 -16 29 -16 92
-2 12 3 25 14 28 25 6 19 8 18 37 -10 16 -17 33 -28 37 -26 4 3 23 -5 42 -17
19 -12 49 -22 67 -23 47 -2 72 -29 72 -77 0 -27 8 -51 25 -73 14 -18 25 -37
25 -43 0 -13 17 -15 24 -2 3 4 -2 26 -10 48 l-16 41 38 58 c57 88 73 128 79
202 3 37 8 79 11 95 5 25 3 27 -28 26 -18 -1 -25 -3 -16 -6 38 -10 33 -83 -8
-102 -37 -16 -61 -13 -77 10 -17 24 -13 49 14 78 l20 21 -2441 0 -2440 0 0
-1285z m7998 1244 c41 -14 62 -49 62 -102 0 -59 -30 -91 -99 -106 -29 -6 -61
-11 -73 -11 -25 0 -101 -21 -108 -30 -3 -4 -26 -15 -52 -26 -27 -10 -48 -22
-48 -25 0 -4 -20 -12 -45 -19 -24 -7 -50 -19 -56 -26 -6 -8 -16 -14 -22 -14
-16 0 -106 -59 -155 -101 -51 -44 -90 -56 -129 -37 -37 17 -65 73 -59 117 10
63 58 95 139 91 31 -1 55 4 65 13 20 17 132 60 132 50 0 -3 8 1 18 9 9 9 36
22 60 29 23 7 42 15 42 19 0 7 59 34 100 45 14 4 48 32 77 61 69 72 95 83 151
63z m-4068 -53 c0 -14 5 -28 10 -31 15 -9 12 -50 -6 -88 -16 -33 -16 -35 5
-56 26 -26 26 -33 1 -56 -16 -15 -22 -15 -35 -5 -18 15 -20 56 -4 66 7 4 9 23
6 49 -7 51 2 145 14 145 5 0 9 -11 9 -24z m54 -69 c-3 -9 -11 -17 -16 -17 -6
0 -7 7 -4 16 3 9 6 21 6 27 0 8 3 8 10 1 6 -6 8 -18 4 -27z m-570 -102 c4 -11
2 -14 -6 -9 -8 5 -9 2 -5 -9 8 -22 -22 -39 -46 -26 -16 9 -23 39 -12 50 12 13
63 8 69 -6z m-290 -124 c21 -23 18 -49 -6 -65 -37 -23 -76 35 -48 70 17 19 34
18 54 -5z m821 9 c3 -5 15 -10 25 -10 23 0 43 -32 34 -54 -8 -20 -43 -31 -56
-18 -6 6 -16 8 -23 6 -12 -5 -45 31 -45 48 0 12 31 38 45 38 8 0 17 -4 20 -10z
m-209 -25 c8 -21 -43 -72 -57 -58 -8 8 -6 20 5 42 18 33 43 41 52 16z m19 -75
c-3 -5 -12 -10 -18 -10 -7 0 -6 4 3 10 19 12 23 12 15 0z m96 -40 c25 -14 24
-46 -1 -60 -40 -22 -80 26 -48 58 15 15 24 15 49 2z m3078 -14 c13 -16 4 -46
-14 -46 -19 0 -36 25 -29 44 8 20 28 21 43 2z m-3251 -23 c9 -10 30 -24 45
-30 21 -10 27 -19 27 -46 0 -35 -15 -57 -38 -57 -8 0 -39 16 -69 36 -46 30
-54 40 -51 62 2 16 13 31 28 39 33 17 37 16 58 -4z m5342 -13 c0 -5 -2 -10 -4
-10 -3 0 -8 5 -11 10 -3 6 -1 10 4 10 6 0 11 -4 11 -10z m-5103 -32 c-3 -8 -6
-5 -6 6 -1 11 2 17 5 13 3 -3 4 -12 1 -19z m-2996 -18 c23 -13 25 -43 3 -61
-31 -26 -70 25 -44 56 15 18 16 18 41 5z m2923 -43 c21 -16 18 -45 -6 -61 -38
-23 -78 35 -42 61 10 7 21 13 24 13 3 0 14 -6 24 -13z m73 -19 c-3 -7 -5 -2
-5 12 0 14 2 19 5 13 2 -7 2 -19 0 -25z m143 -38 c0 -21 -4 -72 -9 -112 -5
-40 -12 -120 -16 -177 l-6 -104 23 6 c26 7 58 -17 58 -44 0 -23 -35 -42 -65
-37 -20 4 -24 0 -29 -36 -17 -113 -24 -228 -16 -253 5 -18 9 -21 9 -9 1 15 3
16 17 6 16 -14 16 -63 -1 -58 -5 2 -9 9 -9 16 1 6 -1 12 -5 12 -14 0 -34 -91
-42 -195 -15 -189 -19 -213 -39 -218 -16 -4 -18 5 -22 87 -5 124 4 353 12 301
5 -34 7 -26 13 45 11 137 29 379 33 455 16 292 33 369 76 357 13 -3 18 -14 18
-42z m198 18 c26 -26 2 -75 -31 -62 -22 8 -31 42 -17 59 15 18 32 19 48 3z
m-1655 -23 c4 -8 2 -17 -4 -21 -15 -9 -39 3 -39 21 0 19 36 20 43 0z m1314 -7
c-3 -8 -6 -5 -6 6 -1 11 2 17 5 13 3 -3 4 -12 1 -19z m5090 -20 c-3 -7 -5 -2
-5 12 0 14 2 19 5 13 2 -7 2 -19 0 -25z m7665 17 c15 -4 29 -13 32 -20 3 -8
13 -11 27 -8 18 5 21 3 16 -10 -4 -10 -1 -17 6 -17 12 0 54 -156 44 -166 -3
-3 -2 -18 3 -33 6 -23 4 -27 -13 -28 -11 -1 -23 -7 -27 -13 -4 -6 -23 -12 -43
-13 -40 -3 -71 -23 -46 -31 51 -16 52 -16 39 -31 -17 -20 -32 -19 -58 5 -24
22 -106 30 -84 8 19 -19 14 -28 -18 -28 -16 0 -30 -4 -30 -10 0 -5 -11 -10
-25 -10 -14 0 -25 -4 -25 -10 0 -5 9 -10 20 -10 11 0 20 -4 20 -10 0 -14 -47
-13 -52 1 -2 7 -19 1 -42 -15 -21 -14 -34 -26 -27 -26 6 0 11 -13 11 -30 0
-26 -4 -30 -27 -30 l-28 1 23 12 c29 16 19 27 -27 28 -33 0 -34 1 -13 11 31
15 27 28 -8 25 -23 -2 -29 -6 -24 -19 7 -22 -18 -24 -36 -3 -6 8 -16 13 -21
12 -9 -2 -33 33 -45 66 -3 9 -12 17 -19 17 -16 0 -21 16 -30 87 -6 44 -4 54
14 72 12 12 21 27 21 35 0 7 11 21 25 30 14 9 25 23 25 31 0 8 6 15 13 15 7 0
24 11 38 24 32 30 63 46 86 46 11 0 28 8 39 18 32 30 194 46 266 27z m-8608
-36 c31 -24 56 -69 56 -100 0 -32 -38 -94 -70 -112 -37 -22 -68 -21 -107 3
-44 26 -56 54 -50 113 9 95 104 148 171 96z m-5066 -45 c4 -27 -26 -40 -46
-20 -21 20 -8 48 20 44 14 -2 24 -11 26 -24z m1730 -13 c18 -11 11 -51 -10
-65 -35 -22 -74 27 -48 59 14 17 38 19 58 6z m-804 -279 c0 -317 -6 -390 -14
-187 -5 138 -5 139 -30 145 -44 10 -36 95 9 88 14 -3 16 13 19 115 1 64 6 117
10 117 4 0 7 -125 6 -278z m-994 163 c0 -15 -7 -26 -20 -30 -41 -13 -70 43
-33 64 25 13 53 -5 53 -34z m-782 -14 c5 -32 -23 -54 -49 -40 -21 11 -26 55
-6 63 27 11 52 1 55 -23z m-1881 3 c8 -22 -10 -49 -32 -49 -10 0 -22 7 -28 16
-15 24 -1 49 28 49 15 0 28 -7 32 -16z m3891 4 c17 -17 15 -53 -3 -68 -20 -17
-62 -5 -70 20 -14 44 41 80 73 48z m11128 -12 c7 -30 -1 -46 -24 -46 -10 0
-28 -7 -40 -16 -21 -14 -22 -14 -22 5 0 11 10 25 21 32 15 8 19 8 15 0 -8 -13
1 -13 29 -1 13 6 15 9 5 9 -13 1 -13 2 0 11 10 6 11 10 3 10 -7 0 -13 5 -13
10 0 20 20 9 26 -14z m-11496 -10 c28 -35 -11 -93 -47 -70 -36 22 -23 84 17
84 10 0 23 -7 30 -14z m11796 -57 c4 -8 9 -7 16 2 7 11 11 11 15 2 2 -7 17
-13 33 -13 19 0 29 -6 33 -20 3 -11 14 -20 25 -20 10 0 27 -9 36 -19 17 -19
17 -20 -4 -31 -14 -8 -20 -18 -17 -30 3 -11 -1 -24 -9 -31 -8 -6 -14 -18 -14
-25 0 -8 -4 -14 -10 -14 -5 0 -10 -6 -10 -13 0 -13 -118 -126 -143 -137 -7 -3
-30 -17 -52 -30 -22 -14 -43 -24 -47 -22 -5 1 -8 -2 -8 -8 0 -5 -15 -13 -32
-19 -67 -20 -182 -62 -192 -70 -6 -4 -33 -16 -61 -26 -27 -10 -61 -28 -75 -40
-39 -34 -87 -65 -100 -65 -7 0 -32 -14 -57 -30 -59 -40 -125 -72 -193 -96 -30
-10 -62 -24 -71 -31 -8 -7 -30 -13 -47 -13 -36 0 -104 -25 -144 -52 -14 -10
-33 -18 -42 -18 -9 0 -16 -4 -16 -10 0 -5 -5 -10 -11 -10 -6 0 -38 -16 -70
-35 -33 -19 -67 -35 -75 -35 -18 0 -110 -46 -118 -59 -4 -5 -20 -13 -37 -16
-23 -5 -28 -9 -18 -16 10 -6 6 -9 -13 -9 -17 0 -28 -5 -28 -14 0 -7 -12 -22
-27 -31 -16 -10 -39 -29 -52 -42 -17 -16 -27 -20 -31 -12 -6 8 -9 8 -14 0 -4
-6 -5 -15 -2 -19 7 -11 -30 -42 -49 -42 -8 0 -15 -6 -15 -12 0 -20 -65 -58
-81 -47 -8 5 -29 9 -46 9 -26 0 -33 -4 -33 -19 0 -44 -82 -138 -127 -147 -18
-3 -33 -10 -33 -14 0 -5 -10 -12 -22 -15 -13 -4 -57 -22 -98 -40 -41 -17 -94
-33 -118 -33 -26 -1 -61 -12 -86 -27 -24 -14 -50 -25 -59 -25 -10 0 -17 -3
-17 -8 0 -9 -49 -36 -120 -65 -14 -5 -38 -16 -55 -23 -64 -27 -110 -35 -155
-26 -26 5 -44 13 -42 20 1 7 -4 12 -10 12 -16 1 -99 133 -98 155 0 3 0 11 0
18 0 8 -23 26 -51 41 -27 15 -67 45 -87 66 -138 142 -162 169 -162 182 0 8 -4
18 -9 23 -18 19 -21 123 -5 173 22 70 35 93 74 135 35 39 121 92 150 92 8 1
20 4 25 7 16 10 120 13 134 4 6 -4 18 -5 26 -2 13 5 58 -12 95 -34 8 -6 31
-17 50 -25 31 -14 38 -14 70 -1 35 15 90 28 206 46 79 12 97 19 180 72 38 24
89 52 114 62 25 10 63 27 85 36 23 10 63 21 90 25 57 9 127 31 135 44 7 11
176 91 193 91 7 0 17 4 22 9 6 5 44 18 85 30 41 12 86 25 99 29 13 4 33 25 45
47 12 22 30 51 41 64 27 34 118 121 152 147 38 29 132 74 154 74 10 0 20 4 23
9 3 5 25 9 48 9 24 1 95 6 158 13 179 17 200 16 228 -17 19 -21 26 -24 32 -14
7 11 12 7 21 -13 7 -15 15 -27 19 -27 4 0 10 -9 13 -20 6 -24 27 -27 27 -4 0
9 8 14 18 13 31 -3 39 1 78 36 21 19 40 35 43 36 4 1 17 3 31 4 42 6 59 11 66
18 4 4 25 7 46 7 22 0 37 3 35 8 -3 4 15 5 40 3 25 -2 50 2 56 8 14 14 44 14
53 0z m-11822 -75 c21 -20 20 -37 -3 -65 -16 -20 -23 -22 -38 -13 -18 11 -29
54 -19 80 7 19 41 18 60 -2z m-2410 -36 c8 -14 7 -21 -5 -33 -28 -29 -73 11
-48 42 15 17 38 13 53 -9z m15246 2 c11 -7 3 -10 -30 -9 -34 0 -40 2 -25 9 27
12 37 12 55 0z m160 6 c0 -3 -4 -8 -10 -11 -5 -3 -10 -1 -10 4 0 6 5 11 10 11
6 0 10 -2 10 -4z m-11000 -51 c18 -21 3 -55 -25 -55 -29 0 -39 14 -31 46 7 27
37 32 56 9z m10828 -3 c2 -7 -7 -12 -23 -12 -22 0 -24 2 -13 15 15 16 30 15
36 -3z m-147 -11 c-9 -6 -12 -22 -9 -50 3 -36 1 -41 -17 -41 -15 0 -17 2 -6 9
10 6 12 19 7 44 -5 24 -3 37 6 40 21 9 34 7 19 -2z m-12673 -123 c6 -7 12 -26
14 -43 2 -21 9 -31 27 -35 13 -3 25 -14 27 -24 4 -28 14 -32 14 -5 0 17 3 20
9 10 15 -23 2 -45 -40 -69 -44 -25 -82 -24 -93 4 -8 21 9 51 34 59 11 3 20 11
20 17 0 5 -7 7 -16 4 -23 -9 -64 20 -64 44 0 10 10 26 22 34 27 19 33 20 46 4z
m1956 -10 c15 -24 -3 -52 -37 -56 -35 -4 -52 26 -31 57 18 26 51 25 68 -1z
m5814 -40 c2 -4 10 -8 17 -8 8 0 30 -14 50 -31 74 -65 82 -204 15 -277 -112
-123 -312 -78 -350 77 -34 144 79 271 225 253 22 -3 42 -9 43 -14z m-7997 -74
c17 -21 0 -49 -32 -49 -24 0 -36 23 -25 51 7 19 40 18 57 -2z m-1097 -50 c20
-19 20 -19 0 -38 -12 -12 -20 -13 -35 -6 -22 12 -25 30 -7 48 16 16 23 15 42
-4z m746 -84 c0 -5 -4 -10 -10 -10 -5 0 -10 5 -10 10 0 6 5 10 10 10 6 0 10
-4 10 -10z m8 -39 c3 -8 -1 -12 -9 -9 -7 2 -15 10 -17 17 -3 8 1 12 9 9 7 -2
15 -10 17 -17z m1240 -19 c3 -16 -2 -22 -16 -22 -22 0 -32 17 -24 38 7 20 37
9 40 -16z m-347 -53 c26 -26 21 -49 -13 -69 -35 -19 -62 -5 -66 34 -7 53 40
74 79 35z m-325 -13 c7 -31 -2 -62 -22 -70 -24 -9 -54 12 -54 39 0 41 11 55
41 55 22 0 30 -6 35 -24z m124 -38 c0 -26 -4 -38 -14 -38 -18 0 -23 15 -18 50
6 43 32 33 32 -12z m-1612 0 c2 -19 -3 -30 -18 -38 -27 -14 -50 2 -50 35 0 29
9 37 40 33 19 -2 26 -10 28 -30z m4287 -33 c0 -30 -39 -27 -43 3 -3 20 0 23
20 20 15 -2 23 -10 23 -23z m-1846 -41 c24 -30 17 -52 -22 -73 -53 -28 -104
43 -57 81 31 25 55 23 79 -8z m2478 -721 c-1 -136 -2 -27 -2 242 0 270 1 381
2 248 2 -133 2 -353 0 -490z m-6330 631 c5 -14 -24 -50 -32 -42 -11 11 4 60
17 56 7 -3 13 -9 15 -14z m6447 -209 c3 -99 2 -227 -3 -285 -7 -87 -8 -56 -10
184 0 159 1 287 3 285 3 -2 7 -85 10 -184z m-3160 162 c38 -27 -2 -95 -41 -71
-24 15 -28 48 -8 68 20 19 26 20 49 3z m4884 -78 c74 -91 94 -116 104 -128 21
-26 48 -112 48 -154 -1 -76 -44 -155 -141 -261 l-37 -39 -70 23 c-57 19 -82
34 -128 79 -130 127 -138 262 -23 380 54 55 95 84 144 104 55 22 82 21 103 -4z
m-5121 -121 c-2 -18 -4 -4 -4 32 0 36 2 50 4 33 2 -18 2 -48 0 -65z m-1927 17
c20 -24 3 -57 -28 -53 -27 3 -39 26 -28 54 7 18 40 18 56 -1z m1748 -48 c2
-16 -2 -35 -10 -44 -11 -14 -14 -12 -24 12 -6 16 -9 37 -6 47 7 28 36 17 40
-15z m1560 -29 c17 -17 15 -43 -4 -59 -31 -26 -70 25 -44 56 15 18 32 19 48 3z
m-1372 -126 c3 -18 9 -30 14 -27 6 3 17 2 26 -3 11 -6 23 -1 44 20 33 33 41
34 69 11 18 -16 20 -25 14 -76 -5 -50 -9 -60 -31 -68 -20 -8 -32 -5 -57 13
-20 13 -31 27 -27 36 3 10 1 13 -9 8 -8 -3 -22 -9 -31 -12 -10 -4 -18 -13 -18
-21 0 -8 -4 -11 -10 -8 -12 7 -13 63 -2 160 4 46 8 58 10 35 1 -19 5 -50 8
-68z m354 53 c18 -22 8 -50 -19 -50 -32 0 -49 28 -32 49 17 20 35 20 51 1z
m1918 -29 c3 -16 -35 -38 -50 -29 -9 5 -11 47 -2 56 10 10 49 -9 52 -27z m721
-254 c2 -171 4 -187 22 -200 26 -18 24 -54 -6 -80 -21 -19 -25 -31 -27 -84
l-1 -63 -9 80 c-12 119 -12 121 -3 385 10 271 20 256 24 -38z m-6134 252 c19
-20 16 -43 -7 -58 -38 -23 -78 35 -42 61 23 17 29 16 49 -3z m2300 -44 c14
-43 -44 -67 -68 -28 -8 12 -7 21 2 32 19 23 58 20 66 -4z m800 -2 c0 -13 -6
-32 -12 -43 -11 -18 -12 -17 -13 16 0 34 6 49 20 49 3 0 6 -10 5 -22z m-2901
-11 c26 -19 18 -61 -12 -65 -44 -7 -67 32 -36 62 19 19 25 20 48 3z m2796 -7
c11 -11 20 -28 20 -37 0 -21 -29 -53 -48 -53 -22 0 -52 30 -52 52 0 19 33 58
50 58 6 0 19 -9 30 -20z m-3400 -10 c27 -27 25 -46 -4 -65 -19 -13 -29 -14
-45 -5 -26 14 -29 65 -3 79 24 15 29 14 52 -9z m3505 -50 c3 -5 1 -10 -4 -10
-6 0 -11 5 -11 10 0 6 2 10 4 10 3 0 8 -4 11 -10z m32 -222 c-2 -35 -3 -7 -3
62 0 69 1 97 3 63 2 -35 2 -91 0 -125z m-51 120 c7 -22 -16 -48 -42 -48 -20 0
-36 28 -29 50 9 29 61 28 71 -2z m433 -16 c20 -38 -31 -71 -59 -37 -6 8 -9 23
-5 35 8 25 51 27 64 2z m-885 -18 c9 -8 16 -19 16 -24 0 -10 -29 -40 -39 -40
-27 0 -43 63 -18 73 20 9 25 8 41 -9z m8294 -41 c65 -64 92 -110 92 -157 0
-18 9 -49 20 -71 22 -43 25 -75 11 -138 -5 -23 -15 -69 -22 -102 -11 -49 -21
-68 -59 -105 -45 -45 -56 -51 -260 -127 -36 -13 -85 -33 -110 -45 -59 -27
-215 -92 -310 -128 -162 -61 -207 -79 -264 -104 -32 -14 -63 -26 -68 -26 -6 0
-38 -13 -72 -30 -34 -16 -108 -45 -164 -63 -88 -30 -110 -42 -160 -89 -68 -63
-113 -79 -209 -77 -76 1 -150 -22 -420 -130 -84 -34 -228 -90 -320 -125 -211
-80 -254 -99 -323 -140 -31 -19 -77 -37 -105 -41 -27 -4 -161 -49 -297 -100
-257 -98 -323 -113 -408 -98 -84 16 -95 99 -17 136 48 22 52 56 7 55 -41 -1
-52 12 -56 64 -3 42 -2 45 46 77 27 18 51 39 54 46 7 20 89 55 129 55 25 0 77
20 166 65 71 36 131 65 135 65 10 0 109 63 149 95 107 84 106 83 96 118 -15
50 -1 148 25 178 37 43 53 43 64 -1 10 -41 9 -81 -3 -143 l-7 -38 38 7 c22 3
126 49 233 102 175 85 196 99 225 139 34 50 89 83 136 83 17 0 60 15 96 34 38
20 87 37 119 41 30 4 60 13 66 21 6 8 20 14 31 14 10 0 21 7 24 15 4 8 17 15
30 15 16 0 28 10 40 32 16 32 16 32 -17 59 -19 15 -35 32 -35 38 -1 6 -2 14
-4 19 -9 30 5 91 27 120 30 40 50 49 75 33 20 -13 56 0 71 25 4 8 14 14 21 14
7 0 21 9 30 19 28 31 69 35 119 13 36 -16 47 -28 65 -70 32 -75 50 -81 127
-43 34 17 70 31 79 31 15 0 165 66 241 107 17 9 80 42 140 73 142 74 175 93
175 103 0 4 5 7 12 7 6 0 43 15 82 34 84 40 195 76 236 76 16 0 32 5 35 10 3
6 24 10 45 10 34 0 47 -7 98 -57z m-6402 1 c-4 -9 -9 -15 -11 -12 -3 3 -3 13
1 22 4 9 9 15 11 12 3 -3 3 -13 -1 -22z m-1452 -9 c19 -19 12 -38 -19 -55 -20
-11 -27 -11 -40 0 -15 13 -20 51 -8 63 12 12 51 7 67 -8z m523 -77 c-2 -18 -4
-4 -4 32 0 36 2 50 4 33 2 -18 2 -48 0 -65z m2180 -310 c-1 -73 -3 -14 -3 132
0 146 2 205 3 133 2 -73 2 -193 0 -265z m-2612 252 c8 -24 -30 -67 -39 -44
-14 37 -24 3 -35 -123 -7 -76 -14 -187 -16 -248 -4 -121 -10 -147 -33 -143
-19 4 -34 55 -22 77 4 9 19 119 31 244 21 201 25 227 41 227 9 0 22 9 28 20
12 22 36 17 45 -10z m435 -53 c0 -13 -18 -109 -40 -213 -22 -104 -46 -216 -53
-249 -9 -43 -17 -61 -30 -63 -24 -5 -22 23 7 138 13 52 38 160 56 240 17 80
33 151 36 158 6 21 24 13 24 -11z m-463 -119 c-2 -18 -4 -6 -4 27 0 33 2 48 4
33 2 -15 2 -42 0 -60z m-243 -12 c24 6 56 -17 56 -40 0 -6 14 -17 30 -23 32
-12 41 -48 18 -71 -16 -16 -48 -15 -48 1 0 6 -12 21 -26 32 -53 42 -66 57 -61
75 2 10 1 24 -4 31 -4 7 -5 18 -1 24 4 5 8 0 10 -13 3 -17 8 -21 26 -16z
m-1434 -12 c14 -16 5 -50 -16 -58 -38 -15 -75 35 -49 64 17 19 47 16 65 -6z
m-1912 -36 c30 -30 0 -75 -43 -64 -19 5 -25 13 -25 35 0 15 3 31 7 34 11 11
48 8 61 -5z m3734 -41 c25 -37 -7 -89 -42 -67 -16 10 -22 61 -8 77 16 19 34
16 50 -10z m-122 -78 c0 -26 -22 -39 -43 -25 -22 17 -22 45 0 61 14 11 20 10
30 -4 7 -9 13 -23 13 -32z m2258 -8 c2 -6 -4 -18 -13 -27 -9 -9 -14 -18 -11
-21 2 -3 20 13 40 34 l35 38 1 -40 c0 -52 7 -61 57 -78 152 -52 199 -226 89
-332 -107 -104 -159 -146 -167 -133 -10 16 -29 -32 -29 -73 0 -16 -4 -29 -10
-29 -5 0 -10 23 -10 51 0 31 -4 48 -10 44 -5 -3 -10 -32 -11 -63 -1 -66 -17
-45 -18 24 -1 45 -23 75 -37 52 -9 -14 -10 -18 -13 -58 -1 -22 -3 -23 -12 -8
-5 10 -12 32 -14 50 -2 18 -9 34 -15 36 -5 2 -10 10 -10 18 0 24 -14 15 -55
-38 -22 -29 -58 -75 -81 -103 -39 -49 -41 -54 -47 -141 -7 -104 -25 -194 -37
-194 -11 0 -30 90 -30 141 0 28 -4 39 -12 36 -7 -2 -13 -10 -14 -18 -11 -202
-15 -218 -75 -264 -14 -11 -31 -30 -38 -43 -6 -12 -15 -22 -19 -22 -11 0 -41
61 -44 89 l-3 24 -30 -25 c-17 -15 -37 -38 -44 -52 -13 -23 -12 -28 3 -45 29
-32 6 -90 -73 -180 -38 -42 -78 -95 -89 -118 -17 -33 -30 -44 -68 -57 -26 -9
-52 -16 -59 -16 -15 0 -131 -110 -127 -121 6 -23 -40 -89 -74 -105 -20 -9 -47
-34 -60 -55 -13 -22 -42 -50 -64 -64 -51 -32 -341 -316 -334 -327 3 -4 59 -8
124 -8 l119 0 57 50 c47 41 61 49 83 44 32 -8 61 -32 71 -60 10 -26 79 -36
300 -41 85 -2 185 -4 222 -5 49 -1 72 3 85 14 10 8 32 15 48 15 27 1 94 26
135 52 8 5 37 20 64 32 75 34 249 129 270 148 10 9 20 15 22 13 5 -3 121 54
224 110 30 17 71 43 91 59 20 15 50 31 65 35 35 8 312 152 344 179 8 7 26 16
39 20 51 15 242 117 253 134 6 10 18 16 27 14 9 -2 35 12 58 31 22 20 52 36
65 36 12 0 52 18 88 40 36 22 81 45 100 51 19 7 118 54 219 105 101 52 196 94
211 94 37 0 49 -18 38 -57 -10 -37 -48 -67 -98 -78 -19 -4 -69 -24 -110 -45
-176 -87 -455 -233 -460 -239 -3 -4 -24 -13 -48 -20 -24 -6 -51 -20 -61 -30
-9 -9 -22 -16 -28 -14 -7 3 -74 -27 -150 -65 -76 -38 -200 -97 -275 -132 -108
-50 -144 -71 -168 -101 -27 -34 -33 -37 -60 -29 -26 8 -47 1 -143 -44 -119
-56 -162 -76 -377 -176 -74 -34 -146 -70 -160 -79 -14 -9 -43 -23 -64 -31 -22
-8 -41 -20 -43 -26 -7 -20 27 -25 57 -9 16 8 36 15 46 15 9 0 33 8 53 19 20
10 79 37 132 60 81 34 106 41 158 39 58 -2 78 -12 46 -24 -20 -8 -19 -43 2
-66 14 -16 15 -23 5 -39 -12 -19 -8 -19 145 -18 87 0 150 3 141 7 -15 6 -14 9
7 19 15 6 27 7 31 2 10 -17 176 -10 246 10 37 11 73 23 80 27 7 5 19 9 28 10
20 1 185 52 233 71 35 14 37 18 39 62 l1 46 4 -43 c4 -42 5 -44 31 -37 15 4
41 13 57 20 17 8 46 18 65 23 35 10 469 160 524 181 15 6 41 25 57 42 26 27
32 30 71 24 48 -7 34 -11 473 139 353 120 454 158 519 195 28 16 71 32 96 36
25 4 164 47 310 96 580 193 625 205 665 175 18 -13 18 -14 -4 -49 -17 -28 -32
-39 -64 -47 -40 -10 -334 -104 -712 -227 -93 -30 -190 -66 -215 -78 -25 -12
-70 -25 -100 -28 -30 -3 -75 -12 -100 -20 -25 -9 -106 -34 -180 -57 -74 -23
-189 -59 -255 -80 -66 -21 -186 -59 -266 -84 -81 -25 -152 -53 -159 -61 -7 -8
-27 -15 -44 -15 -17 0 -76 -13 -131 -29 -151 -43 -434 -130 -490 -151 -27 -10
-71 -24 -97 -30 l-48 -13 0 -60 0 -60 60 6 c54 6 60 5 60 -12 0 -29 -74 -42
-251 -44 l-154 -2 3 -120 c3 -120 10 -141 41 -130 23 9 51 -5 51 -24 0 -25
-17 -37 -62 -45 l-38 -7 0 -124 c0 -68 5 -136 10 -151 10 -26 12 -27 73 -20
34 3 94 9 132 13 39 3 80 13 93 21 20 13 41 15 147 11 11 0 40 5 65 11 25 6
99 12 165 14 162 5 253 19 297 45 51 31 137 39 171 16 22 -14 39 -16 103 -10
42 4 104 9 137 10 34 1 78 5 97 8 35 6 200 16 367 22 112 5 158 28 190 97 21
44 45 169 42 223 -3 95 3 375 10 405 l8 35 8 -42 c4 -24 10 -43 14 -43 8 0 6
-90 -3 -111 -4 -8 -2 -28 3 -42 8 -20 7 -27 -2 -27 -9 0 -9 -2 0 -8 8 -5 13
-56 15 -155 2 -87 7 -151 13 -155 6 -4 17 -29 26 -57 20 -65 57 -89 140 -86
54 1 92 -10 112 -34 6 -6 10 -6 14 3 2 6 17 12 32 12 15 0 32 5 39 12 9 9 12
9 12 -4 0 -15 20 -18 255 -35 44 -3 92 -12 107 -19 34 -18 38 -17 38 1 0 8 2
15 5 15 12 0 75 -35 75 -42 0 -24 20 -2 35 40 10 26 22 51 26 56 5 6 9 20 9
32 0 27 15 40 58 49 20 4 32 3 32 -4 0 -6 5 -10 12 -8 14 3 57 -83 51 -101 -3
-7 -1 -18 5 -25 6 -6 12 -27 14 -46 2 -19 8 -36 13 -38 20 -6 49 25 50 53 1
18 7 29 16 29 7 0 21 15 30 34 18 39 49 61 49 36 0 -23 38 -1 52 30 9 20 16
24 43 19 22 -3 36 0 46 12 13 16 15 15 20 -12 l6 -29 10 25 c6 14 18 32 26 39
9 7 13 19 10 27 -3 8 4 17 20 23 14 5 28 15 32 20 9 16 29 13 54 -8 15 -13 18
-20 9 -23 -21 -8 51 -40 73 -33 23 8 129 -21 129 -35 0 -6 13 -10 30 -10 19 0
33 -7 40 -20 6 -11 17 -20 24 -20 19 0 28 -28 16 -50 -12 -23 -13 -40 -1 -21
7 11 15 8 37 -15 25 -24 26 -29 12 -32 -19 -4 -23 -28 -10 -50 17 -25 42 -2
42 39 0 39 0 39 40 39 25 0 40 5 40 13 0 6 10 -1 23 -17 l23 -28 12 27 12 26
23 -28 c12 -15 30 -44 39 -64 15 -33 15 -36 -1 -46 -14 -10 -13 -12 10 -21 43
-17 132 -24 162 -13 25 10 27 15 27 66 0 40 4 57 15 61 8 4 15 17 15 29 0 13
5 27 10 30 6 4 8 10 5 15 -8 13 28 79 43 80 7 0 15 -7 19 -15 3 -9 18 -22 34
-31 28 -14 41 -54 19 -54 -13 0 -13 -27 1 -32 6 -2 13 -32 16 -66 8 -90 23
-96 218 -96 134 0 327 7 515 19 36 3 218 8 405 12 187 5 346 12 352 16 7 4 29
4 48 -2 19 -5 35 -6 35 -2 0 5 11 6 25 3 14 -2 41 3 61 13 72 34 376 21 392
-17 6 -15 65 -8 77 8 24 33 298 28 325 -5 3 -3 19 -11 35 -16 17 -6 34 -20 40
-33 11 -26 50 -30 74 -8 14 12 25 13 76 1 33 -8 101 -16 150 -19 266 -18 424
-25 455 -21 19 2 306 5 637 6 445 2 606 -1 616 -9 8 -7 17 -9 21 -5 9 10 296
13 296 3 0 -4 53 -10 117 -13 66 -4 119 -11 121 -17 2 -5 22 -11 45 -11 23 -1
54 -4 70 -8 26 -6 27 -7 12 -28 -9 -12 -34 -27 -57 -34 -32 -8 -38 -13 -27
-21 10 -6 7 -7 -11 -2 -14 4 -28 11 -32 17 -4 8 -15 7 -35 -2 -15 -8 -62 -17
-103 -22 -41 -5 -99 -11 -127 -15 -45 -6 -53 -4 -53 10 0 20 -16 21 -23 2 -5
-12 -29 -15 -121 -15 -63 1 -120 -2 -126 -6 -7 -4 -76 -9 -154 -11 -77 -2
-206 -6 -286 -9 -80 -2 -228 -7 -330 -10 -102 -3 -257 -8 -345 -11 -88 -3
-207 -7 -265 -9 -58 -1 -141 -8 -185 -14 -44 -7 -118 -14 -165 -16 -47 -3 -98
-8 -115 -12 l-30 -7 40 -7 c22 -5 69 -11 105 -14 36 -3 121 -12 190 -20 125
-14 533 -32 795 -35 112 -1 143 -4 157 -17 16 -15 20 -15 36 0 10 10 22 14 25
11 4 -4 47 -7 97 -8 54 -1 94 -5 98 -12 4 -6 18 -10 32 -9 25 2 50 -10 50 -25
0 -14 -33 -21 -41 -9 -4 7 -17 9 -35 5 -22 -6 -25 -9 -13 -17 9 -6 -7 -9 -48
-9 -36 0 -63 4 -63 10 0 6 -7 10 -16 10 -8 0 -12 -4 -9 -10 4 -6 -6 -10 -22
-11 -15 0 -88 -2 -160 -3 -73 -1 -136 -5 -139 -9 -10 -10 -44 -9 -44 2 0 4
-19 6 -42 2 -24 -3 -63 -5 -88 -4 -188 6 -485 2 -580 -7 -63 -6 -189 -13 -280
-16 -165 -4 -380 -31 -380 -46 0 -14 -22 -8 -35 9 -12 16 -16 16 -47 2 -23
-12 -64 -17 -141 -17 -59 0 -113 -4 -119 -9 -7 -4 -66 -7 -130 -7 -97 1 -122
5 -150 21 -30 18 -48 19 -173 16 -77 -2 -148 -5 -157 -7 -19 -4 -446 9 -638
19 -63 4 -223 8 -355 10 l-240 4 -77 -30 c-43 -16 -87 -29 -98 -29 -17 0 -20
-4 -15 -21 6 -17 3 -20 -12 -17 -11 2 -17 11 -15 24 2 16 -8 23 -50 37 -29 10
-66 17 -83 17 -16 -1 -113 -3 -215 -6 -206 -5 -242 -7 -283 -19 l-27 -7 27
-24 c19 -17 23 -24 13 -25 -8 -1 -19 -2 -25 -4 -5 -1 -16 -3 -22 -3 -7 -1 -13
-9 -13 -17 0 -9 -9 -15 -23 -15 -16 0 -28 -9 -35 -25 -15 -32 -28 -32 -46 3
-14 25 -15 26 -16 5 0 -16 -6 -23 -19 -23 -10 0 -21 -7 -25 -15 -3 -8 -13 -15
-21 -15 -9 0 -14 -4 -11 -9 3 -5 -6 -16 -20 -26 -19 -12 -29 -14 -39 -5 -8 7
-18 9 -23 6 -4 -3 -14 10 -20 29 -17 46 -37 59 -88 56 -24 -1 -54 4 -66 11
-24 13 -28 14 -55 18 -13 1 -11 4 7 9 l25 7 -22 12 c-13 7 -23 22 -23 32 0 12
-7 20 -17 20 -9 0 -25 8 -35 17 -20 18 -37 23 -77 25 -39 1 -71 -44 -71 -98 0
-37 -4 -47 -20 -51 -11 -3 -20 -9 -20 -13 0 -12 -28 -20 -45 -14 -8 4 -15 15
-15 25 0 11 -7 19 -18 19 -13 0 -21 15 -32 62 -11 45 -20 64 -32 66 -13 3 -18
-3 -18 -18 0 -16 -4 -20 -16 -16 -27 10 -151 19 -177 12 -13 -3 -27 -15 -30
-26 -5 -19 -8 -20 -26 -8 -17 10 -25 10 -42 0 -14 -9 -51 -13 -110 -11 -59 1
-94 -2 -104 -11 -8 -7 -15 -8 -15 -2 0 5 -8 12 -19 15 -22 6 -66 -26 -57 -42
8 -12 -6 -15 -76 -11 -26 1 -67 -1 -90 -5 -35 -6 -39 -9 -23 -16 20 -8 20 -8
0 -8 -15 -1 -25 -14 -38 -51 -10 -27 -22 -50 -27 -50 -4 0 -11 -17 -15 -38
-13 -76 -47 -84 -59 -13 -17 106 -99 210 -154 196 -24 -6 -154 -6 -432 0 -47
1 -133 5 -191 10 -101 7 -109 7 -144 -15 -47 -29 -139 -25 -184 7 -26 20 -49
22 -267 32 -348 15 -381 17 -464 29 -41 6 -110 11 -152 12 -74 0 -78 -1 -92
-27 l-14 -28 -7 26 c-6 26 -8 27 -158 41 -84 8 -155 11 -160 8 -5 -5 -12 -207
-17 -514 0 -5 -3 -7 -6 -3 -4 3 -6 116 -5 251 3 300 9 286 -127 286 -55 0
-106 -6 -136 -16 -43 -15 -117 -16 -165 -3 -22 6 -28 -38 -30 -190 0 -74 -4
-132 -7 -128 -3 3 -8 75 -11 159 -3 84 -10 161 -15 171 -14 27 -35 20 -42 -14
-11 -54 -7 -198 6 -219 9 -14 9 -24 0 -42 -6 -13 -13 -39 -15 -58 l-4 -35 -1
36 c-1 22 -8 39 -17 43 -18 7 -20 50 -2 64 9 8 11 42 7 133 l-5 123 -35 2
c-19 1 -74 5 -122 9 -80 6 -89 5 -110 -14 -29 -27 -33 -27 -68 9 -24 24 -37
30 -67 29 -21 -1 -57 1 -80 6 -37 7 -44 4 -69 -20 -15 -15 -39 -31 -53 -35
-22 -5 -41 -28 -54 -64 -6 -18 -53 24 -65 58 -10 27 -18 34 -37 32 -14 0 -29
-11 -37 -25 -23 -42 -89 -54 -136 -24 -15 10 -29 20 -32 24 -3 3 -34 19 -70
36 -64 30 -64 30 -80 10 -15 -18 -19 -19 -46 -6 -22 12 -28 21 -26 41 3 32
-15 38 -120 38 -89 0 -102 -8 -113 -72 l-7 -43 -10 30 c-6 17 -12 31 -13 32
-1 2 -25 -4 -53 -12 -40 -12 -52 -20 -52 -35 0 -11 -4 -20 -10 -20 -5 0 -10 8
-10 18 0 19 -86 52 -138 52 -20 0 -36 7 -46 22 -17 24 -75 36 -173 37 -34 1
-72 5 -85 10 -13 4 -42 11 -65 15 -39 6 -45 3 -88 -34 -61 -53 -94 -53 -145
-2 -20 20 -39 44 -42 52 -4 13 -10 13 -40 2 -24 -8 -44 -9 -60 -3 -14 5 -31 5
-40 0 -19 -10 -68 5 -68 21 0 5 -3 9 -7 9 -27 -4 -22 4 12 21 23 12 50 18 63
15 12 -3 22 -1 22 4 0 5 14 13 32 16 26 6 35 3 49 -14 9 -11 22 -21 28 -21 20
0 61 32 61 46 0 8 3 14 8 14 4 0 12 10 17 23 11 25 54 35 66 15 5 -7 9 -23 9
-34 0 -12 11 -29 25 -38 31 -20 35 -20 35 1 0 22 29 53 51 53 9 0 26 -12 36
-26 17 -23 23 -25 41 -15 11 6 42 11 67 11 25 0 56 5 68 12 12 6 35 14 52 18
27 5 30 9 27 42 -4 42 1 46 61 52 25 2 66 16 91 31 25 15 50 24 56 20 5 -3 14
4 19 16 8 23 8 23 19 3 6 -11 22 -20 38 -22 15 -1 31 -8 36 -15 5 -8 8 -6 8 8
0 11 11 28 24 37 22 16 25 16 41 -2 11 -12 16 -29 13 -44 -4 -21 0 -28 23 -38
15 -7 31 -19 34 -28 16 -40 31 -58 46 -57 10 1 15 5 13 9 -3 5 2 11 10 14 9 3
16 16 16 29 0 23 22 49 33 39 4 -4 14 7 24 25 18 31 19 31 76 25 49 -6 65 -3
104 17 29 15 51 35 61 56 9 18 19 33 24 33 13 0 9 35 -7 66 -21 41 -19 52 16
85 24 22 41 29 73 29 53 0 69 -11 69 -47 -1 -23 8 -34 47 -59 43 -28 50 -30
64 -16 13 14 15 12 21 -14 11 -51 27 -84 40 -84 7 0 24 -11 39 -25 22 -20 37
-25 81 -25 29 0 65 -4 79 -10 17 -6 26 -6 26 0 0 6 6 10 13 10 21 0 54 42 62
78 8 38 25 43 25 8 0 -14 10 -36 23 -50 21 -23 29 -25 139 -28 111 -4 117 -3
122 17 4 17 10 322 7 382 -1 21 -6 23 -53 22 -68 -1 -182 -26 -230 -50 -21
-11 -45 -19 -55 -19 -23 0 -166 -42 -215 -63 -34 -14 -38 -20 -38 -51 0 -48
-8 -65 -30 -59 -10 3 -21 -1 -25 -8 -6 -8 -13 -1 -24 22 -9 19 -23 35 -31 35
-8 1 -20 2 -25 3 -6 0 -11 11 -11 22 0 37 68 70 166 83 46 5 99 25 175 64 17
8 46 23 65 33 19 10 65 22 102 27 38 6 87 20 111 31 24 12 51 21 60 21 8 0 28
5 44 11 15 7 39 13 52 15 13 2 33 12 45 23 15 14 36 21 62 21 21 1 53 7 69 15
29 14 26 14 -55 15 -47 0 -107 2 -135 4 -57 5 -171 -18 -195 -38 -8 -8 -37
-17 -65 -21 -29 -4 -61 -17 -78 -31 -16 -13 -35 -24 -43 -24 -8 0 -42 -14 -75
-31 -33 -16 -95 -43 -137 -59 -90 -33 -194 -79 -371 -163 -14 -7 -32 -25 -41
-42 -9 -18 -36 -40 -66 -55 -27 -14 -64 -35 -82 -48 -32 -24 -119 -39 -137
-25 -5 4 -20 22 -31 39 -16 23 -19 35 -12 48 14 25 9 26 -40 9 -34 -11 -47
-12 -58 -2 -11 9 -14 7 -14 -11 0 -13 -5 -20 -12 -18 -16 6 -22 95 -9 140 9
33 9 33 10 4 1 -23 4 -27 19 -20 9 4 43 7 74 5 53 -2 57 0 70 25 15 32 101 82
140 83 15 1 30 5 33 11 3 5 23 14 43 20 46 12 135 87 128 107 -8 20 16 53 39
53 23 0 47 -13 46 -26 -1 -18 66 -6 107 20 46 29 51 42 25 62 -16 12 -16 13
-2 14 9 0 24 9 34 20 23 26 67 26 83 0 13 -22 16 -21 115 23 37 16 67 34 67
38 0 8 -254 16 -375 12 -185 -5 -183 -5 -232 -37 -26 -17 -45 -35 -43 -41 3
-6 45 -10 95 -10 139 -1 161 -3 147 -17 -7 -7 -39 -10 -89 -8 -175 7 -186 5
-240 -33 -68 -48 -114 -56 -142 -26 -11 13 -21 28 -21 35 0 6 -7 17 -15 24
-21 17 -19 30 5 30 10 0 24 9 30 19 5 11 24 28 40 38 17 9 30 21 30 25 0 4
-55 8 -123 8 -137 0 -131 3 -199 -90 -14 -19 -46 -57 -72 -85 -25 -27 -63 -72
-84 -99 -20 -27 -60 -72 -89 -100 -28 -28 -62 -73 -76 -101 -14 -27 -47 -71
-73 -97 -27 -26 -58 -56 -68 -67 -24 -26 -48 -27 -71 -1 -14 15 -15 23 -6 33
14 17 0 31 -41 41 -19 4 -28 13 -28 26 0 16 -7 20 -30 20 -23 0 -30 -4 -30
-20 0 -23 -35 -46 -46 -29 -13 21 -17 136 -5 143 6 4 11 19 11 33 0 15 8 36
18 47 27 30 52 99 46 127 -14 67 -28 99 -44 99 -9 0 -27 11 -40 25 -22 23 -22
25 -6 50 17 26 40 31 65 16 31 -20 133 47 130 85 -1 11 -1 51 0 89 2 50 5 63
11 45 l7 -25 7 25 c12 44 37 204 37 235 0 17 -3 46 -6 65 -5 30 -2 40 27 72
61 68 96 138 67 138 -16 0 -8 55 36 259 41 192 50 225 64 216 5 -3 12 -1 15 4
7 11 40 213 57 346 12 101 27 163 28 119 1 -11 7 -27 14 -35 6 -8 11 -12 9
-10 -1 2 4 11 12 20 8 9 19 50 26 91 6 41 15 100 21 130 6 30 16 111 23 180 8
69 14 109 15 89 0 -20 4 -51 8 -70 5 -28 7 -30 14 -14 4 11 8 51 8 88 1 43 5
66 11 62 6 -3 10 -33 10 -66 0 -46 3 -59 15 -59 9 0 15 -10 16 -27 1 -16 3
-21 6 -11 2 9 16 18 31 20 25 3 28 8 43 88 l15 85 12 -53 c7 -29 12 -64 12
-78 0 -24 31 -59 53 -59 13 0 21 -58 12 -93 -3 -12 -14 -31 -25 -42 -24 -24
-41 -128 -19 -115 11 7 12 6 3 -6 -7 -8 -19 -58 -29 -111 -10 -54 -21 -98 -25
-98 -4 0 -12 10 -17 23 -11 21 -11 21 -18 2 -3 -11 -17 -40 -30 -65 -31 -61
-55 -144 -56 -199 -1 -25 -5 -57 -9 -71 -7 -22 -8 -20 -10 15 -1 36 -2 37 -10
15 -5 -14 -12 -52 -16 -85 -3 -33 -9 -54 -11 -47 -8 22 -21 13 -29 -20 -3 -18
-12 -42 -20 -53 -7 -11 -24 -67 -39 -125 -38 -156 -61 -212 -98 -247 -19 -17
-26 -40 -36 -110 -7 -48 -20 -99 -28 -112 -10 -16 -13 -36 -9 -66 7 -41 5 -44
-33 -76 -32 -27 -48 -54 -80 -137 -23 -56 -41 -111 -41 -121 0 -11 -6 -21 -12
-24 -7 -2 -11 -7 -8 -10 6 -7 554 -15 586 -9 14 2 20 10 18 20 -3 10 25 54 70
108 106 131 120 161 66 150 -17 -3 -42 -1 -58 5 -23 9 -25 12 -11 22 8 7 18
20 22 29 3 10 12 15 20 13 21 -9 130 151 125 184 -1 9 15 34 35 56 21 22 47
56 58 75 11 20 40 48 65 64 26 16 44 35 44 46 0 10 4 21 9 25 5 3 12 19 16 36
4 17 13 33 20 35 7 3 21 29 30 57 22 68 31 77 72 77 23 0 43 8 61 26 15 14 40
33 55 42 15 9 30 28 33 42 3 14 10 36 17 50 9 18 10 33 3 52 -12 33 8 62 37
54 21 -5 104 77 187 188 48 63 65 76 100 76 23 0 51 31 33 37 -35 12 -4 68
103 187 20 21 43 53 52 72 8 19 19 34 23 34 4 0 49 53 100 118 216 273 196
252 231 248 18 -2 34 -8 36 -15z m-2065 -151 c14 -11 28 -34 32 -50 9 -39 -11
-97 -37 -111 -39 -21 -80 -29 -99 -18 -27 14 -49 62 -49 108 0 75 93 118 153
71z m-216 -67 c-3 -10 -5 -2 -5 17 0 19 2 27 5 18 2 -10 2 -26 0 -35z m925
-79 c14 -31 1 -57 -31 -62 -28 -4 -51 14 -51 42 0 50 62 65 82 20z m-4187 -24
c9 -15 -14 -50 -33 -50 -39 0 -57 51 -25 69 18 9 46 0 58 -19z m7676 -84 c23
-36 19 -90 -8 -117 -10 -10 -34 -21 -54 -24 -31 -6 -41 -3 -70 23 -26 23 -33
37 -33 65 0 89 119 127 165 53z m-4414 -308 c-1 -62 -3 -12 -3 112 0 124 2
174 3 113 2 -62 2 -164 0 -225z m-92 203 c-14 -236 -14 -241 -40 -241 -12 0
-25 6 -27 13 -7 21 23 311 34 324 5 6 16 9 24 6 12 -4 13 -23 9 -102z m405 70
c0 -5 -12 -52 -26 -103 -14 -51 -31 -120 -37 -153 -10 -52 -15 -60 -36 -63
-22 -4 -23 -1 -17 30 20 92 20 98 -1 98 -11 0 -28 9 -37 19 -14 15 -15 24 -6
40 11 22 54 29 65 11 15 -24 26 1 49 103 4 18 13 27 26 27 11 0 20 -4 20 -9z
m-1630 -11 c0 -5 -5 -10 -11 -10 -5 0 -7 5 -4 10 3 6 8 10 11 10 2 0 4 -4 4
-10z m3443 -101 c5 -3 2 -9 -5 -12 -9 -3 -14 3 -15 15 -1 11 1 16 5 12 4 -5
11 -12 15 -15z m-77 -76 c-10 -10 -19 5 -10 18 6 11 8 11 12 0 2 -7 1 -15 -2
-18z m4 -19 c0 -2 -9 -4 -21 -4 -11 0 -18 4 -14 10 5 8 35 3 35 -6z m-4550
-35 c0 -5 -7 -6 -15 -3 -8 4 -15 13 -15 21 0 13 3 13 15 3 8 -7 15 -16 15 -21z
m4480 -19 c0 -5 -4 -10 -10 -10 -5 0 -10 5 -10 10 0 6 5 10 10 10 6 0 10 -4
10 -10z m-1860 -29 c0 -20 -17 -37 -27 -28 -7 8 7 47 18 47 5 0 9 -9 9 -19z
m1030 15 c0 -2 -7 -7 -16 -10 -8 -3 -12 -2 -9 4 6 10 25 14 25 6z m67 -2 c30
-8 45 -54 27 -85 -7 -13 -19 -34 -25 -46 -20 -37 -32 -29 -63 44 -18 40 -18
44 -2 68 17 26 26 29 63 19z m740 -26 c-3 -8 -6 -5 -6 6 -1 11 2 17 5 13 3 -3
4 -12 1 -19z m-3853 -4 c7 -19 -10 -44 -29 -44 -19 0 -36 25 -29 44 3 9 16 16
29 16 13 0 26 -7 29 -16z m2877 -68 c7 -14 8 -30 3 -39 -12 -21 -40 0 -49 36
-6 23 -4 27 14 27 13 0 26 -10 32 -24z m-3542 -30 c19 -22 2 -75 -26 -82 -42
-11 -75 34 -57 80 8 20 67 22 83 2z m2558 -153 c-2 -32 -3 -8 -3 52 0 61 1 87
3 58 2 -29 2 -78 0 -110z m967 119 c2 -4 1 -14 -4 -22 -7 -11 -14 -12 -27 -4
-27 17 -27 34 1 34 13 0 27 -4 30 -8z m-1115 -42 c24 -12 33 -71 22 -139 -8
-54 -21 -71 -53 -71 -13 0 -18 8 -18 29 0 17 -4 32 -10 36 -5 3 -14 22 -19 42
-9 32 -7 39 21 74 35 44 33 43 57 29z m348 -10 c12 0 14 -8 9 -37 -13 -71 -39
-153 -47 -148 -4 3 -10 1 -14 -5 -15 -24 -35 -9 -35 24 0 19 -4 38 -10 41 -5
3 -10 15 -10 27 0 14 -5 18 -15 14 -9 -3 -15 0 -15 9 0 8 -5 15 -11 15 -6 0
-3 7 5 15 12 12 20 14 36 5 11 -6 20 -15 20 -20 0 -6 7 -10 15 -10 9 0 15 9
15 24 0 37 11 58 27 52 8 -3 22 -6 30 -6z m977 -9 c25 -28 17 -72 -16 -90 -24
-14 -28 -14 -47 3 -38 34 -19 106 28 106 10 0 26 -9 35 -19z m-3310 -17 c18
-7 21 -36 6 -64 -8 -16 -4 -28 25 -65 38 -50 60 -115 51 -151 -5 -18 5 -34 46
-77 92 -95 90 -91 79 -121 -9 -21 -17 -26 -46 -26 -31 0 -35 3 -30 19 4 14 -1
20 -20 25 -14 4 -29 14 -32 24 -4 9 -17 30 -31 47 -19 23 -31 29 -58 26 -37
-3 -117 29 -153 62 -31 29 -61 100 -61 144 0 26 8 43 34 69 29 29 41 34 80 34
38 0 46 3 46 18 0 34 29 50 64 36z m2133 -221 c-2 -16 -4 -3 -4 27 0 30 2 43
4 28 2 -16 2 -40 0 -55z m-1569 -24 c3 -28 -16 -43 -43 -33 -15 6 -21 45 -8
58 16 16 48 1 51 -25z m2618 -3 c9 -39 1 -60 -30 -71 -23 -8 -30 -6 -42 10
-30 41 -11 85 38 85 21 0 29 -6 34 -24z m-1049 -73 c-2 -16 -4 -5 -4 22 0 28
2 40 4 28 2 -13 2 -35 0 -50z m-157 -22 c0 -11 -4 -23 -10 -26 -6 -4 -10 5
-10 19 0 14 5 26 10 26 6 0 10 -9 10 -19z m-2556 -7 c7 -17 -9 -54 -24 -54
-33 0 -55 42 -33 63 12 13 51 7 57 -9z m2836 -20 c0 -14 -4 -22 -10 -19 -5 3
-10 17 -10 31 0 14 4 22 10 19 6 -3 10 -17 10 -31z m520 1 c0 -8 -4 -15 -9
-15 -5 0 -11 7 -15 15 -3 9 0 15 9 15 8 0 15 -7 15 -15z m-610 -205 c32 -30
32 -70 -1 -70 -21 0 -31 -28 -28 -75 2 -16 1 -79 -1 -140 -3 -103 -3 -106 -10
-50 -11 83 -11 235 -2 401 7 133 7 135 10 50 3 -83 5 -90 32 -116z m-175 155
c40 -39 29 -105 -17 -105 -10 0 -27 9 -38 20 -17 17 -19 28 -14 58 11 57 31
65 69 27z m-1417 3 c29 -29 2 -66 -39 -53 -19 6 -26 44 -12 58 10 11 38 8 51
-5z m4567 -18 c0 -16 -6 -26 -18 -28 -19 -4 -32 20 -23 44 9 25 41 13 41 -16z
m1230 5 c37 -36 34 -86 -7 -120 -26 -22 -39 -26 -67 -21 -90 14 -96 130 -8
155 49 14 56 13 82 -14z m-6367 -47 c35 -44 88 -89 120 -103 35 -15 43 -44 17
-65 -16 -13 -55 -5 -55 12 0 15 -89 98 -105 98 -15 0 -45 27 -45 40 0 12 29
40 41 40 5 0 17 -10 27 -22z m1977 -145 c-3 -13 -9 -23 -14 -23 -15 0 -18 24
-8 60 9 35 9 35 19 10 5 -13 6 -35 3 -47z m5498 -77 c8 -9 12 -26 10 -40 -4
-20 -17 -30 -59 -46 -30 -11 -61 -20 -68 -20 -7 0 -39 -14 -71 -31 -53 -28
-58 -29 -75 -14 -27 24 -32 60 -16 100 17 40 49 56 98 49 18 -3 47 0 63 5 46
14 102 13 118 -3z m-5535 -8 c28 -28 6 -88 -33 -94 -16 -2 -55 32 -55 49 0 43
60 73 88 45z m-1337 -175 c6 -20 46 -79 88 -132 124 -155 141 -178 141 -189 0
-31 -28 -10 -136 99 -65 66 -138 132 -162 147 -60 38 -71 94 -23 118 37 19 78
0 92 -43z m772 -2 c14 -14 -1 -31 -28 -31 -18 0 -23 5 -21 24 1 18 6 23 20 20
11 -2 24 -8 29 -13z m3791 -114 c9 -15 7 -22 -13 -38 -13 -10 -27 -19 -32 -19
-15 0 -30 40 -24 61 8 25 53 23 69 -4z m-1802 -4 c25 -22 23 -58 -5 -80 -13
-10 -29 -28 -36 -41 -7 -13 -21 -22 -36 -22 -45 0 -73 74 -39 102 9 7 26 23
38 35 25 27 53 29 78 6z m-4292 -88 c27 -32 -23 -82 -55 -55 -15 13 -20 51 -8
63 12 12 50 7 63 -8z m4564 -61 c19 -7 21 -55 4 -72 -34 -34 -82 13 -59 57 12
21 27 26 55 15z m-1604 -30 c13 -33 -3 -64 -33 -64 -29 0 -47 18 -47 45 0 48
63 64 80 19z m610 -44 c0 -5 -7 -10 -16 -10 -8 0 -12 5 -9 10 3 6 10 10 16 10
5 0 9 -4 9 -10z m-173 -6 c-3 -3 -12 -4 -19 -1 -8 3 -5 6 6 6 11 1 17 -2 13
-5z m130 0 c-3 -3 -12 -4 -19 -1 -8 3 -5 6 6 6 11 1 17 -2 13 -5z m183 -154
c0 -5 -7 -10 -15 -10 -8 0 -15 5 -15 10 0 6 7 10 15 10 8 0 15 -4 15 -10z
m-1702 -94 c62 -64 74 -86 49 -86 -14 0 -127 125 -127 141 0 20 20 6 78 -55z
m-382 -18 c4 -6 -2 -19 -14 -29 -12 -9 -22 -22 -22 -28 0 -6 -12 -14 -27 -17
-36 -10 -59 20 -39 50 7 12 23 21 34 21 11 0 24 3 28 8 11 11 32 9 40 -5z
m2403 -7 c9 -6 11 -15 6 -27 -5 -11 -8 -22 -7 -25 2 -12 -37 2 -49 17 -9 11
-8 18 1 29 14 17 29 19 49 6z m-1698 -11 c23 -13 25 -33 4 -50 -33 -27 -74 17
-43 48 15 15 15 15 39 2z m430 -60 c23 -13 25 -52 4 -70 -8 -7 -25 -10 -40 -6
-19 5 -25 13 -25 34 0 27 15 52 33 52 4 0 17 -5 28 -10z m-2116 -30 c0 -18 -6
-26 -23 -28 -13 -2 -25 3 -28 12 -10 26 4 48 28 44 17 -2 23 -10 23 -28z
m1519 -29 c21 -23 18 -54 -6 -59 -22 -4 -58 32 -58 58 0 26 41 27 64 1z m2689
-56 c22 -16 16 -70 -9 -79 -41 -16 -71 46 -38 78 19 19 24 19 47 1z m-3509
-14 c23 -25 6 -61 -29 -61 -33 0 -49 30 -29 58 19 27 36 28 58 3z m-514 -5
c19 -23 8 -61 -18 -64 -44 -7 -67 32 -36 62 19 20 38 20 54 2z m-505 -84 c6
-4 11 -17 13 -29 2 -17 -3 -24 -23 -29 -26 -6 -51 5 -27 13 6 3 12 9 12 14 0
4 -7 6 -15 3 -15 -6 -21 16 -8 29 8 9 35 9 48 -1z m2006 -67 c0 -13 -41 -19
-41 -7 0 11 20 22 33 18 5 -1 8 -6 8 -11z m549 -25 c0 -5 -4 -10 -10 -10 -5 0
-10 5 -10 10 0 6 5 10 10 10 6 0 10 -4 10 -10z m33 -55 c42 -29 50 -67 18 -85
-32 -17 -49 -12 -68 20 -9 17 -23 30 -30 30 -19 0 -16 13 7 38 26 28 27 27 73
-3z m-3448 -10 c118 -69 63 -235 -77 -235 -73 0 -143 74 -134 143 12 102 116
148 211 92z m2856 -123 c6 -17 4 -27 -11 -42 -19 -19 -21 -19 -40 -3 -25 21
-26 42 -2 59 23 19 43 13 53 -14z m-2571 -7 c14 -17 5 -51 -16 -59 -24 -9 -54
12 -54 39 0 34 47 48 70 20z m16320 -12 c6 -5 -22 -23 -36 -23 -7 0 -14 9 -17
20 -4 17 -2 19 21 14 15 -4 29 -9 32 -11z m-15562 -15 c7 -7 12 -26 12 -42 0
-22 3 -27 9 -17 5 7 14 10 20 6 7 -4 46 -8 87 -8 63 -2 75 1 80 15 6 20 46 34
64 23 6 -4 16 -18 21 -32 l9 -25 25 26 c36 39 61 35 98 -16 9 -13 35 -19 112
-25 95 -8 100 -9 113 -35 10 -22 10 -36 1 -68 -7 -22 -17 -44 -24 -50 -6 -5
-108 -12 -225 -15 -118 -3 -272 -8 -342 -10 l-126 -6 -7 31 c-4 18 -11 27 -17
24 -6 -4 -8 -2 -5 3 4 6 -1 32 -10 58 -16 47 -15 49 5 65 14 12 17 21 11 31
-12 20 -11 53 3 67 7 7 26 12 43 12 17 0 36 -5 43 -12z m1052 -138 c129 -26
149 -27 169 -14 17 12 20 11 25 -12 4 -15 4 -40 1 -56 -7 -28 -8 -29 -26 -12
-16 14 -30 15 -116 8 -126 -12 -154 -9 -170 12 -28 39 1 101 42 90 11 -3 45
-10 75 -16z m580 -20 c13 -7 58 -7 141 1 103 9 127 9 163 -4 22 -9 50 -18 61
-20 11 -3 -22 -5 -74 -6 -100 -1 -122 -11 -27 -12 65 -1 77 -12 44 -39 -34
-28 -62 -32 -108 -16 -26 9 -52 11 -69 6 -18 -5 -39 -3 -62 7 -19 8 -48 12
-66 9 -21 -3 -36 1 -44 10 -7 9 -19 12 -28 8 -9 -4 -32 -6 -52 -5 -20 1 -48
-3 -62 -8 -21 -8 -26 -7 -29 7 -9 42 0 47 77 45 54 -1 77 2 86 13 14 17 24 18
49 4z m-2357 -61 c16 -26 0 -68 -28 -75 -33 -8 -55 11 -55 47 0 45 60 65 83
28z m3421 -76 c30 -32 20 -63 -19 -63 -35 0 -51 34 -30 66 8 13 17 24 20 24 2
0 15 -12 29 -27z m11940 -38 c4 -12 -4 -15 -39 -15 -33 0 -45 4 -45 15 0 11
11 15 39 15 25 0 41 -5 45 -15z m-15361 -47 c18 -28 -7 -68 -43 -68 -26 0 -30
4 -30 26 0 58 47 85 73 42z m2471 -70 c15 -24 -3 -52 -37 -56 -33 -4 -53 28
-37 59 14 25 58 23 74 -3z m966 -13 c12 -22 11 -27 -5 -39 -28 -20 -55 -9 -55
24 0 44 39 54 60 15z m9793 18 c-7 -2 -19 -2 -25 0 -7 3 -2 5 12 5 14 0 19 -2
13 -5z m-12855 -15 c32 -32 -18 -87 -53 -58 -15 13 -20 51 -8 63 11 11 48 8
61 -5z m8769 6 c-3 -3 -12 -4 -19 -1 -8 3 -5 6 6 6 11 1 17 -2 13 -5z m-5616
-56 c8 -15 7 -24 -7 -39 -29 -32 -53 -21 -68 29 -6 17 -3 24 16 31 29 10 45 4
59 -21z m-3731 12 c20 0 17 -42 -5 -68 -20 -23 -25 -25 -49 -14 -18 8 -26 19
-26 36 0 27 37 59 58 51 8 -3 17 -5 22 -5z m1644 -73 c-4 -12 -9 -13 -18 -4
-9 8 -10 15 -2 23 14 16 29 2 20 -19z m1156 3 c0 -5 6 -7 14 -4 8 3 17 1 20
-5 8 -12 -24 -30 -41 -24 -15 5 -17 43 -3 43 6 0 10 -4 10 -10z m550 -99 c6
-25 16 -77 21 -116 5 -38 16 -90 24 -115 15 -50 41 -143 56 -205 9 -37 20 -66
39 -105 8 -17 63 -22 100 -8 24 9 24 10 7 23 -12 9 -17 23 -15 42 3 25 7 28
38 28 29 0 36 -4 38 -23 2 -13 -2 -30 -9 -38 -23 -28 11 -34 204 -34 182 0
213 5 167 30 -11 6 -20 18 -20 26 0 19 -213 234 -232 234 -7 0 -24 20 -36 44
-15 28 -33 47 -48 50 -13 4 -32 16 -43 27 -12 13 -21 17 -26 10 -9 -15 -58
-14 -73 1 -7 7 -12 21 -12 33 0 11 -10 24 -22 30 -49 21 -23 110 32 110 20 0
28 -8 39 -40 17 -51 56 -88 83 -79 11 3 26 0 36 -9 16 -14 22 -13 66 9 37 19
51 22 62 13 24 -20 15 -45 -28 -79 l-42 -34 28 -9 c18 -6 29 -18 33 -38 7 -38
29 -54 71 -54 45 0 64 -26 39 -53 -17 -19 -16 -21 15 -49 18 -16 38 -38 45
-49 6 -10 17 -18 24 -16 7 2 53 3 102 3 87 0 89 1 126 35 47 42 66 42 122 4
32 -21 56 -30 87 -30 23 0 42 -4 42 -10 0 -5 -9 -10 -20 -10 -28 0 -25 -11 13
-47 40 -38 65 -46 122 -38 39 6 43 9 35 25 -6 10 -10 27 -10 38 0 15 -10 21
-42 27 -43 8 -43 8 -13 15 17 4 49 8 73 9 23 0 51 6 61 13 10 6 26 8 35 5 20
-8 21 -43 1 -51 -8 -3 -15 -14 -15 -25 0 -11 -9 -26 -20 -34 -21 -14 -21 -15
6 -21 15 -4 79 -4 143 -1 64 3 136 2 161 -3 44 -10 44 -10 -30 -11 -258 -6
-422 -11 -429 -15 -4 -3 -6 -18 -3 -34 2 -17 -2 -33 -11 -40 -12 -10 -13 -20
-4 -47 9 -31 8 -37 -13 -55 -13 -11 -27 -20 -31 -20 -18 0 -39 34 -39 64 0 39
-57 108 -103 125 -31 12 -237 15 -237 4 0 -15 266 -259 300 -274 24 -11 39
-26 44 -42 3 -14 32 -47 63 -74 97 -83 113 -101 113 -126 0 -31 33 -73 64 -81
15 -4 36 -25 55 -56 20 -33 38 -50 51 -50 11 0 20 7 20 15 0 8 11 21 24 30 44
29 76 -6 56 -60 -10 -26 -7 -32 30 -70 22 -23 37 -44 34 -48 -4 -3 0 -17 8
-29 9 -14 15 -49 16 -86 1 -71 8 -85 86 -177 48 -57 68 -76 72 -72 2 1 6 29 9
62 4 33 12 71 17 84 l9 24 29 -34 c16 -19 29 -40 30 -46 0 -7 11 -13 25 -13
17 0 25 -6 26 -17 5 -119 26 -277 37 -281 8 -2 12 10 12 44 0 63 20 174 31
174 5 0 9 -3 9 -7 0 -5 5 -37 11 -73 6 -36 12 -94 14 -130 2 -36 3 -74 4 -85
1 -18 29 -57 101 -142 10 -12 26 -33 36 -48 9 -14 25 -30 35 -35 15 -9 21 -4
35 25 14 30 19 33 36 24 28 -15 37 2 39 71 1 30 5 69 9 85 6 23 8 15 9 -37 1
-86 21 -103 21 -18 0 77 15 70 24 -10 7 -57 17 -73 31 -49 5 7 11 5 18 -5 7
-8 54 -35 105 -61 52 -26 113 -66 139 -91 26 -24 48 -44 50 -44 2 0 3 8 4 18
0 9 10 -12 21 -48 28 -89 34 -189 14 -248 -9 -26 -20 -63 -25 -82 -5 -19 -10
-27 -10 -17 -1 23 -11 22 -67 -8 -51 -27 -100 -31 -173 -14 -30 7 -47 7 -54 0
-7 -7 -17 -5 -29 6 -12 11 -22 13 -26 7 -4 -6 -22 -10 -41 -10 -27 1 -41 10
-77 51 -39 44 -46 48 -55 33 -12 -21 -32 -23 -48 -4 -15 18 -4 44 20 48 17 3
8 18 -56 98 -41 52 -86 104 -98 115 -12 11 -32 36 -44 55 -12 19 -32 46 -45
60 -38 40 -118 152 -118 164 0 7 5 17 12 24 19 19 -10 45 -46 39 -38 -6 -66 8
-66 32 0 19 -51 92 -106 151 -104 112 -154 185 -154 224 0 18 -12 33 -42 54
-51 35 -198 177 -198 191 0 5 -12 11 -26 13 -38 4 -51 30 -37 68 11 29 10 31
-22 45 -22 9 -45 31 -64 62 -16 26 -50 65 -75 86 -44 37 -63 36 -51 -2 9 -29
-19 -87 -52 -107 -15 -10 -37 -25 -48 -35 -22 -19 -65 -10 -65 14 0 7 -11 23
-25 35 -17 15 -25 32 -25 54 0 57 11 76 55 99 39 21 47 22 84 11 32 -10 44
-10 61 0 11 7 20 17 20 22 0 5 -18 42 -40 82 -45 82 -50 116 -20 141 11 10 20
23 20 30 0 12 -106 148 -162 208 -16 17 -27 37 -24 46 7 30 -40 33 -338 24
-78 -2 -101 -6 -108 -19 -11 -20 -57 -21 -64 -1 -4 11 -21 15 -57 15 -48 0
-49 -1 -34 -18 10 -10 17 -24 17 -31 0 -7 29 -82 65 -166 36 -85 65 -158 65
-164 0 -5 13 -38 30 -73 16 -34 30 -76 30 -91 0 -23 7 -31 43 -46 66 -29 72
-40 73 -157 0 -56 6 -115 12 -131 5 -15 16 -56 23 -90 7 -35 16 -63 20 -63 4
0 13 -23 20 -52 11 -49 13 -50 22 -28 9 22 11 17 22 -43 13 -73 25 -97 26 -51
0 25 2 26 9 9 5 -11 9 -36 9 -55 1 -32 5 -37 44 -52 52 -22 64 -22 75 -2 7 13
13 14 30 5 31 -16 33 -14 27 23 -6 31 -4 34 22 39 36 7 56 -10 48 -40 -5 -22
-3 -23 22 -16 51 12 133 2 133 -17 0 -9 53 -24 85 -25 17 0 20 -7 20 -40 1
-44 23 -133 38 -152 5 -7 6 -13 3 -13 -4 0 0 -12 8 -27 42 -79 106 -220 106
-234 0 -9 13 -33 29 -53 16 -20 33 -51 36 -68 12 -54 66 -171 97 -211 43 -54
78 -131 78 -173 0 -29 7 -43 35 -68 22 -21 43 -56 60 -101 32 -85 150 -322
174 -350 37 -43 103 -159 95 -168 -4 -4 -8 -107 -5 -141 1 -5 8 -3 16 4 8 6
22 9 32 6 18 -6 75 -97 103 -165 17 -39 227 -453 272 -536 15 -27 35 -67 44
-87 9 -21 20 -38 24 -38 4 0 13 -18 20 -41 8 -22 21 -44 30 -49 22 -12 26 -74
4 -66 -18 7 -18 -1 1 -54 19 -55 19 -60 -5 -60 -25 0 -25 0 1 -50 12 -23 19
-44 15 -47 -3 -4 -8 -4 -10 -2 -7 8 -56 95 -77 137 -12 23 -24 41 -26 38 -2
-2 3 -18 11 -35 9 -16 16 -37 16 -46 0 -9 9 -34 21 -56 11 -23 18 -44 14 -47
-9 -10 -41 36 -61 86 -9 23 -34 75 -55 114 -21 39 -39 75 -39 80 0 14 -152
310 -157 305 -2 -2 21 -57 52 -122 30 -64 55 -120 55 -124 0 -5 9 -18 20 -31
11 -13 20 -29 20 -37 0 -7 29 -72 64 -143 45 -92 60 -130 49 -130 -9 0 -38 49
-74 124 -32 68 -66 126 -74 130 -8 3 -15 16 -15 30 0 24 -107 258 -139 306
-10 14 -26 48 -35 75 -10 28 -30 70 -44 95 -72 124 -125 257 -112 279 4 8 4
26 -1 40 -6 16 -6 28 1 35 20 20 12 39 -15 32 -29 -7 -65 8 -65 27 0 8 -14 26
-31 43 -25 24 -30 35 -25 61 2 18 1 33 -5 33 -5 0 -9 5 -9 11 0 16 -44 102
-66 129 -11 13 -31 35 -46 49 -20 18 -28 35 -28 60 0 22 -10 47 -27 69 -26 35
-37 73 -50 177 -4 38 -14 58 -37 81 -39 40 -86 104 -86 118 0 6 -12 25 -26 41
-31 36 -94 141 -94 158 0 30 -34 97 -49 97 -9 0 -27 7 -39 16 -19 13 -22 24
-22 82 0 37 -3 76 -6 87 -6 20 -74 71 -74 56 0 -5 -15 -12 -33 -15 -19 -3 -45
-18 -58 -32 -29 -33 -114 -74 -151 -74 -23 0 -29 -6 -39 -42 l-12 -43 -10 35
c-18 68 -26 80 -52 80 -14 0 -25 5 -25 10 0 6 -6 10 -14 10 -15 0 -26 -42 -26
-101 0 -22 -4 -39 -10 -39 -6 0 -10 27 -10 60 0 33 -4 60 -10 60 -5 0 -7 15
-5 33 4 28 4 29 -4 7 -5 -14 -9 -47 -10 -74 -2 -77 -8 -50 -15 63 -4 57 -13
115 -20 130 -7 14 -19 47 -26 74 -9 34 -18 47 -31 47 -34 0 -48 27 -47 93 1
82 -30 295 -47 331 -8 16 -12 33 -9 38 3 5 3 25 -1 44 -4 26 -10 34 -21 30 -9
-3 -12 -2 -9 5 4 6 0 16 -9 22 -10 8 -25 57 -40 132 -14 66 -32 134 -40 150
-19 35 -21 94 -5 129 10 21 8 29 -13 54 -18 21 -32 63 -52 158 -42 192 -67
288 -77 295 -5 3 -10 31 -10 62 -1 40 -7 65 -21 82 -11 15 -17 33 -14 43 4 11
-2 29 -12 43 -11 13 -17 30 -15 36 3 7 -15 64 -40 125 -25 62 -48 124 -52 138
-4 14 -11 30 -15 35 -12 15 -48 126 -52 160 -2 23 2 32 22 42 21 10 28 9 47
-9 12 -11 27 -41 33 -67z m1060 69 c19 -10 56 -29 83 -41 26 -12 47 -25 47
-30 0 -5 7 -6 15 -3 10 4 18 -3 25 -20 5 -14 12 -26 16 -26 3 0 3 7 0 16 -8
22 20 64 42 64 10 0 29 11 42 25 40 42 57 34 65 -33 4 -36 2 -43 -22 -59 -16
-11 -41 -25 -58 -32 l-30 -13 35 -15 c19 -8 49 -21 65 -28 17 -7 64 -28 105
-48 41 -19 111 -47 154 -62 68 -23 202 -83 256 -114 8 -5 60 -23 115 -41 55
-18 132 -48 172 -66 40 -19 77 -34 82 -34 5 0 22 -7 37 -15 23 -12 72 -15 236
-15 116 0 209 4 213 9 5 9 -188 74 -256 85 -19 3 -53 15 -74 26 -22 11 -54 20
-72 20 -19 0 -50 11 -73 26 -22 15 -46 24 -54 21 -8 -3 -20 0 -26 8 -8 10 -18
11 -40 4 -33 -12 -65 1 -74 29 -4 10 -12 19 -19 20 -6 0 -30 5 -52 11 -22 5
-61 13 -87 16 -34 4 -48 11 -48 22 0 11 6 14 23 9 32 -9 166 -28 211 -30 24
-1 44 -9 55 -21 20 -25 73 -44 140 -50 35 -2 58 -10 69 -23 9 -11 40 -25 67
-32 28 -7 64 -20 80 -28 17 -9 48 -16 71 -17 22 -1 51 -9 65 -18 13 -8 67 -29
121 -46 75 -25 110 -31 160 -29 l63 3 -86 27 c-47 15 -103 31 -125 36 -24 5
-39 14 -39 22 0 19 -9 20 175 -33 85 -25 168 -48 184 -51 22 -6 26 -10 17 -19
-7 -7 -40 -11 -89 -9 -55 2 -73 0 -62 -7 8 -6 24 -11 36 -11 11 0 24 -4 30 -9
11 -12 160 -61 183 -61 9 0 21 -4 27 -9 8 -9 303 -100 749 -232 110 -33 254
-77 320 -98 66 -22 174 -56 240 -77 66 -20 125 -40 130 -44 6 -4 28 -11 49
-14 21 -4 48 -13 60 -21 12 -7 36 -16 55 -20 18 -4 48 -15 65 -25 17 -10 62
-25 101 -34 38 -10 74 -21 80 -25 5 -5 33 -5 60 -2 41 5 60 2 110 -20 33 -15
132 -52 220 -82 88 -31 185 -65 215 -77 30 -12 78 -30 105 -40 38 -13 51 -22
53 -40 3 -18 0 -21 -13 -16 -9 3 -21 6 -27 6 -6 0 -6 6 2 15 10 12 7 13 -19 5
-19 -5 -29 -5 -26 1 4 5 -12 9 -34 9 -22 0 -58 6 -78 14 -21 8 -54 17 -73 20
-20 3 -70 17 -113 31 -43 13 -112 31 -155 40 -42 9 -86 22 -98 28 -11 7 -60
32 -107 56 -48 24 -84 47 -82 51 2 4 -16 7 -40 7 -24 0 -50 5 -58 11 -7 6 -42
19 -78 27 -111 28 -95 23 -559 170 -182 58 -890 294 -915 306 -61 28 -134 45
-173 41 -36 -4 -44 -1 -48 15 -3 12 -20 24 -42 30 -296 86 -243 79 -532 75
-179 -3 -193 -4 -167 -18 31 -17 32 -21 12 -48 -19 -25 -19 -55 0 -62 8 -4 15
-11 15 -18 0 -8 -20 -11 -63 -10 -51 1 -86 11 -195 58 -73 31 -138 56 -145 56
-6 0 -30 9 -52 19 -22 10 -49 15 -59 11 -17 -6 -17 -7 5 -21 27 -18 190 -96
319 -154 47 -21 114 -51 150 -67 36 -17 126 -57 200 -90 74 -34 187 -85 250
-116 63 -30 147 -67 185 -83 39 -16 128 -58 199 -94 99 -49 132 -62 143 -54
10 9 13 8 13 -4 0 -16 78 -60 92 -51 5 3 22 -6 39 -20 17 -14 37 -26 46 -26
16 0 109 -49 153 -80 14 -10 41 -25 60 -33 19 -9 49 -24 65 -33 17 -9 39 -22
50 -27 48 -25 62 -33 95 -57 23 -16 44 -23 67 -21 50 4 81 -20 75 -58 -2 -18
-10 -31 -19 -31 -23 0 -53 20 -53 35 0 10 -11 15 -32 15 -18 0 -48 9 -66 20
-18 11 -38 20 -44 20 -6 0 -41 14 -77 31 -36 17 -95 41 -131 54 -36 12 -87 36
-114 53 -28 18 -62 32 -77 32 -15 0 -31 5 -34 10 -4 6 -25 22 -47 36 -30 19
-43 23 -48 14 -6 -9 -10 -7 -14 7 -6 20 -27 32 -181 102 -49 23 -99 47 -110
53 -11 6 -105 55 -210 109 -104 54 -269 138 -365 189 -200 104 -612 310 -620
310 -3 0 -10 -10 -15 -22 -12 -28 -53 -31 -69 -6 -8 13 -8 23 1 37 11 18 9 20
-15 23 -15 2 -25 7 -22 11 8 13 -41 36 -76 37 -21 0 -37 7 -47 23 l-15 22 -13
-28 c-25 -55 -89 -41 -89 20 0 19 -5 23 -32 24 -31 0 -32 1 -9 10 17 7 21 12
13 22 -16 18 -137 73 -207 93 -40 11 -73 29 -100 54 -22 21 -53 40 -70 43 -16
4 -51 10 -77 15 -26 5 -54 14 -62 22 -22 17 -20 53 4 75 24 22 25 29 4 49 -20
20 -30 14 -37 -21 -8 -41 -35 -54 -75 -37 -27 11 -32 18 -32 47 0 27 8 41 40
70 22 19 40 42 40 49 0 40 55 49 110 18z m-417 -35 c-4 -11 2 -15 20 -15 14 0
29 -4 32 -10 9 -14 25 -12 25 3 0 8 9 22 21 33 17 16 22 16 30 4 12 -19 7
-100 -6 -103 -5 -1 -11 8 -13 21 -4 28 -28 29 -43 1 -8 -15 -18 -20 -35 -16
-18 3 -24 0 -24 -14 0 -20 -15 -26 -24 -10 -9 14 6 131 15 125 4 -2 6 -11 2
-19z m-1002 -21 c17 -21 0 -49 -31 -49 -31 0 -48 28 -31 49 8 9 21 16 31 16
10 0 23 -7 31 -16z m-1987 -16 c15 -24 -13 -53 -43 -43 -21 6 -29 43 -14 59
12 12 45 2 57 -16z m1547 -38 c24 -14 24 -42 0 -64 -15 -14 -24 -15 -40 -6
-25 13 -27 37 -4 62 19 21 19 21 44 8z m2375 -25 c16 -8 22 -15 13 -15 -8 0
-24 7 -35 15 -25 19 -14 19 22 0z m-2363 -146 c-13 -13 -22 -16 -33 -8 -13 8
-10 14 15 36 27 23 30 24 33 8 2 -9 -4 -26 -15 -36z m-2890 -2 c-7 -37 -14
-47 -20 -29 -3 6 -9 10 -14 6 -11 -7 -23 21 -16 39 2 7 16 13 31 15 24 2 25
-1 19 -31z m3486 -1 c13 -16 -1 -56 -19 -56 -33 0 -55 42 -33 63 11 12 40 8
52 -7z m3376 -1 c16 -4 25 -12 25 -24 0 -16 -9 -20 -51 -23 -35 -2 -53 1 -56
10 -3 6 -17 13 -32 13 -22 2 -23 2 -4 6 12 2 27 11 33 19 7 8 22 12 36 9 13
-3 35 -7 49 -10z m-851 -1 c26 -10 20 -53 -8 -60 -32 -8 -46 2 -46 30 0 35 17
44 54 30z m-3194 -67 c0 -16 -111 -127 -128 -127 -20 0 -15 8 46 76 55 61 82
78 82 51z m5326 -60 c35 -31 38 -82 5 -109 -33 -26 -87 -23 -116 7 -28 27 -31
46 -13 78 27 52 80 62 124 24z m-4476 -122 c7 -8 10 -25 6 -39 -12 -48 -76
-41 -76 8 0 42 45 62 70 31z m-1137 -27 c13 -20 -6 -48 -33 -48 -20 0 -29 23
-22 53 6 22 40 19 55 -5z m4364 -24 c-3 -3 -12 -4 -19 -1 -8 3 -5 6 6 6 11 1
17 -2 13 -5z m258 -8 c30 -8 50 -19 50 -27 0 -8 -8 -13 -20 -11 -11 1 -41 3
-68 5 -32 1 -46 6 -43 14 3 7 -3 17 -12 22 -26 15 31 13 93 -3z m-348 -32 c-3
-3 -12 -4 -19 -1 -8 3 -5 6 6 6 11 1 17 -2 13 -5z m-1569 -26 c7 -7 12 -17 12
-24 0 -19 -32 -26 -48 -10 -13 12 -13 18 -2 30 15 19 22 20 38 4z m-2728 -39
c0 -6 -15 -30 -34 -53 -19 -23 -40 -54 -45 -69 -6 -15 -21 -32 -33 -38 -13 -6
-49 -42 -81 -80 -60 -70 -74 -78 -95 -57 -22 22 -12 43 48 103 38 37 60 68 60
82 0 23 34 53 60 53 8 0 35 18 59 39 42 37 61 43 61 20z m1193 -17 c18 -20 13
-58 -10 -66 -38 -15 -71 42 -41 72 17 17 32 15 51 -6z m-1053 -22 c0 -13 -37
-13 -45 0 -3 6 -3 15 0 20 7 12 45 -5 45 -20z m2342 5 c15 -34 -3 -75 -33 -75
-46 0 -77 58 -47 88 22 22 67 14 80 -13z m-4051 -14 c38 -39 38 -74 -1 -113
-26 -25 -36 -29 -63 -24 -38 7 -77 48 -77 79 0 44 44 85 93 86 10 1 32 -12 48
-28z m1724 -40 c-9 -16 -25 -3 -18 15 4 10 9 12 15 6 6 -6 7 -15 3 -21z m-595
-96 c14 -17 5 -51 -15 -59 -35 -13 -63 21 -45 55 13 23 43 25 60 4z m3574 -1
c20 -19 20 -23 0 -45 -13 -14 -21 -16 -35 -8 -22 11 -25 39 -7 57 16 16 23 15
42 -4z m-2811 -14 c40 -31 52 -81 31 -125 -37 -79 -145 -88 -187 -15 -26 44
-21 84 14 125 26 30 37 35 74 35 27 0 51 -7 68 -20z m582 -30 c0 -20 -6 -26
-28 -28 -18 -2 -29 2 -33 12 -11 28 4 48 33 44 22 -2 28 -8 28 -28z m244 -17
c9 -17 11 -17 23 0 19 25 62 19 66 -9 4 -31 -23 -50 -53 -36 -23 10 -25 9 -25
-11 0 -51 -68 -67 -88 -22 -18 38 -15 62 10 79 29 21 55 20 67 -1z m921 2 c0
-18 -24 -30 -40 -20 -8 5 -5 11 7 21 24 18 33 17 33 -1z m670 0 c14 -17 5 -51
-15 -59 -35 -13 -63 21 -45 55 13 23 43 25 60 4z m-5256 -88 c21 -16 18 -45
-6 -61 -38 -23 -78 35 -42 61 10 7 21 13 24 13 3 0 14 -6 24 -13z m8988 -36
c24 -11 62 -25 86 -32 68 -20 77 -30 60 -65 -7 -16 -20 -28 -28 -27 -64 6
-170 27 -190 37 -45 21 -36 106 11 106 10 0 38 -9 61 -19z m-5141 -107 c57
-29 84 -101 56 -153 -14 -28 -94 -75 -102 -61 -3 6 -14 10 -23 10 -31 1 -74
48 -79 89 -5 34 -1 43 32 80 21 22 43 41 50 41 7 0 16 22 21 53 l8 52 4 -48
c3 -41 7 -49 33 -63z m1450 35 c14 -27 -3 -69 -27 -69 -23 0 -54 29 -54 50 0
41 61 55 81 19z m-2647 -2 c33 -24 0 -76 -39 -61 -18 7 -20 45 -3 62 15 15 20
15 42 -1z m1803 -9 c-3 -8 -6 -5 -6 6 -1 11 2 17 5 13 3 -3 4 -12 1 -19z m13
-32 c0 -11 -19 -15 -25 -6 -3 5 1 10 9 10 9 0 16 -2 16 -4z m-817 -43 c3 -5 8
-31 12 -59 8 -59 -7 -74 -53 -51 -28 13 -31 23 -17 72 11 42 14 45 35 45 10 0
21 -3 23 -7z m-113 -88 c0 -15 -7 -26 -20 -30 -41 -13 -70 43 -33 64 25 13 53
-5 53 -34z m858 -33 c6 -18 -35 -51 -57 -45 -36 9 -39 67 -3 76 19 4 54 -14
60 -31z m-698 -32 c24 -24 24 -29 4 -58 -26 -38 -74 -23 -74 24 0 56 33 71 70
34z m156 -70 c15 0 38 -12 55 -29 62 -62 20 -191 -63 -191 -15 0 -28 -5 -28
-10 0 -6 -7 -7 -17 -1 -79 39 -100 54 -117 84 l-21 36 22 43 c14 30 32 49 59
62 22 10 46 22 54 26 9 5 18 2 23 -6 4 -8 19 -14 33 -14z m4524 -34 c145 -51
257 -92 345 -126 44 -17 100 -35 125 -40 42 -9 68 -18 245 -85 39 -14 81 -34
95 -44 25 -18 503 -206 665 -262 70 -24 90 -27 161 -22 119 8 195 -23 247
-102 22 -34 70 -59 184 -95 32 -10 91 -32 132 -49 40 -17 79 -31 87 -31 8 0
14 -4 14 -9 0 -4 33 -11 74 -13 82 -5 158 -36 216 -87 18 -15 83 -47 144 -71
61 -23 129 -53 152 -66 22 -13 46 -24 53 -24 7 0 27 -7 44 -15 18 -8 72 -28
121 -44 48 -16 98 -39 110 -50 29 -27 86 -143 86 -174 0 -14 17 -45 40 -73 54
-65 81 -126 87 -200 5 -52 1 -70 -23 -125 -33 -74 -58 -97 -128 -121 -71 -24
-133 -23 -176 4 -19 12 -38 22 -42 23 -4 0 -34 26 -67 58 -33 32 -64 56 -69
53 -5 -3 -19 1 -33 7 -13 7 -55 26 -94 42 -38 16 -90 41 -115 55 -128 73 -429
216 -525 249 -58 19 -154 67 -408 199 -64 34 -124 62 -133 62 -15 0 -57 19
-139 63 -35 19 -101 50 -240 115 -55 25 -158 74 -230 108 -71 34 -148 69 -170
78 -63 27 -96 42 -155 72 -30 15 -71 28 -92 29 -36 3 -36 3 -40 -42 -2 -25 0
-47 4 -49 5 -3 8 -18 8 -35 0 -22 -5 -29 -19 -29 -25 0 -34 47 -21 107 9 39 8
49 -7 66 -28 33 -67 66 -77 67 -5 0 -27 15 -50 34 -56 46 -409 216 -449 216
-30 1 -90 29 -157 75 -48 32 -55 42 -57 72 -3 52 11 71 55 75 52 4 51 35 -3
64 -33 16 -41 26 -43 53 -6 55 15 66 123 69 34 1 80 -9 145 -32z m-7635 -176
c0 -8 -10 -16 -22 -18 -18 -3 -23 2 -23 18 0 16 5 21 23 18 12 -2 22 -10 22
-18z m1283 -26 c3 -22 -21 -39 -39 -28 -11 6 -12 38 -2 48 13 13 38 1 41 -20z
m2530 -20 c4 -27 -21 -47 -48 -39 -20 6 -28 44 -13 59 15 15 58 1 61 -20z
m-618 -8 c0 -27 -15 -42 -25 -26 -8 13 3 50 16 50 5 0 9 -11 9 -24z m1098 12
c7 -7 12 -21 12 -33 0 -12 -5 -26 -12 -33 -7 -7 -21 -12 -33 -12 -12 0 -26 5
-33 12 -7 7 -12 21 -12 33 0 12 5 26 12 33 7 7 21 12 33 12 12 0 26 -5 33 -12z
m1086 -30 c8 -13 6 -22 -8 -37 -12 -13 -17 -32 -15 -58 6 -86 -2 -268 -11
-246 -7 16 -15 274 -11 351 1 18 31 11 45 -10z m-4136 -21 c4 -20 -25 -34 -40
-19 -15 15 -1 44 19 40 10 -2 19 -11 21 -21z m4469 -214 c-1 -43 -3 -8 -3 77
0 85 2 120 3 78 2 -43 2 -113 0 -155z m-2397 160 c-1 -44 -2 -47 -15 -29 -14
19 -15 19 -15 -6 0 -15 -5 -30 -10 -33 -6 -4 -8 -16 -4 -27 4 -13 0 -24 -13
-33 -28 -22 -33 -18 -33 28 0 24 -5 48 -11 54 -6 6 -12 26 -14 45 -3 33 -1 35
28 36 17 0 37 -4 44 -10 10 -8 13 -6 13 6 0 9 7 16 15 16 11 0 15 -12 15 -47z
m-391 -38 c-1 -35 -2 -37 -9 -15 -4 14 -8 39 -9 55 0 23 2 26 9 15 5 -8 9 -33
9 -55z m2388 -107 c-2 -29 -3 -6 -3 52 0 58 1 81 3 53 2 -29 2 -77 0 -105z
m-2392 33 c-5 -13 -4 -14 6 -3 22 21 69 15 78 -10 9 -26 5 -45 -17 -70 -33
-39 -68 -11 -77 61 -5 40 -4 52 5 46 6 -4 9 -14 5 -24z m1355 9 c26 -26 25
-51 -3 -82 -42 -45 -61 -50 -90 -24 -23 21 -24 24 -9 52 19 39 52 74 69 74 7
0 22 -9 33 -20z m-2388 -50 c53 -41 37 -129 -27 -155 -31 -14 -39 -14 -70 -1
-64 27 -77 115 -24 159 29 23 90 22 121 -3z m2593 -34 c0 -36 -26 -56 -49 -37
-16 14 -22 52 -9 65 4 4 19 6 33 4 20 -2 25 -8 25 -32z m-3844 -26 c21 -12 25
-50 7 -68 -18 -18 -56 -14 -68 7 -14 27 -13 37 6 55 18 19 28 20 55 6z m2313
-92 c7 -13 16 -61 20 -108 7 -105 26 -211 36 -205 4 2 15 -4 25 -15 16 -18 17
-33 12 -132 -4 -61 -11 -114 -15 -117 -19 -13 -21 -97 -7 -272 19 -228 19
-262 3 -257 -13 4 -21 65 -48 331 -5 54 -11 101 -14 105 -3 5 -44 9 -91 10
-48 1 -92 5 -98 9 -7 4 -23 9 -37 11 -43 6 -112 73 -132 128 -21 56 -17 143 7
180 8 13 15 30 15 37 0 8 14 29 31 46 26 27 37 32 69 30 26 -2 45 3 58 14 10
10 26 15 34 12 8 -3 28 7 46 25 18 16 36 30 42 30 18 0 11 56 -10 75 -11 10
-20 24 -20 30 0 7 -7 15 -15 19 -29 11 -4 36 36 36 29 0 42 -5 53 -22z m-2134
-53 c0 -29 -28 -47 -53 -34 -40 23 -6 90 35 68 10 -5 18 -21 18 -34z m2499 8
c6 -21 11 -56 13 -78 2 -22 7 -43 11 -46 11 -8 46 -146 39 -153 -15 -16 -31
-2 -40 37 -6 23 -22 88 -37 145 -15 57 -24 109 -21 117 10 26 25 16 35 -22z
m-91 -16 c26 -24 28 -40 6 -61 -22 -23 -57 -20 -74 7 -16 25 -15 45 7 69 17
19 25 17 61 -15z m-2768 3 c0 -5 -4 -10 -9 -10 -5 0 -18 -3 -28 -6 -16 -6 -16
-5 2 9 23 19 35 21 35 7z m-585 -21 c5 -14 2 -25 -6 -30 -18 -11 -30 -7 -43
14 -8 13 -7 20 4 27 24 15 38 12 45 -11z m-520 2 c-3 -5 -1 -12 5 -16 7 -4 6
-13 -1 -27 -8 -14 -13 -17 -19 -9 -9 16 -1 61 12 61 5 0 7 -4 3 -9z m40 -21
c0 -13 -7 -26 -15 -28 -13 -5 -13 -3 0 13 11 14 12 19 3 22 -7 3 -13 9 -13 15
0 5 6 8 13 6 6 -3 12 -15 12 -28z m353 -33 c6 -28 -6 -64 -22 -70 -8 -3 -25 2
-37 12 -21 17 -22 21 -9 50 10 26 18 31 39 29 16 -2 27 -10 29 -21z m-287 -81
c22 -48 -31 -91 -58 -46 -19 29 1 69 35 70 7 0 17 -11 23 -24z m4849 -10 c28
-35 -11 -93 -47 -70 -19 12 -28 46 -19 70 7 18 50 18 66 0z m-1265 -26 c-3 -5
-12 -10 -18 -10 -7 0 -6 4 3 10 19 12 23 12 15 0z m1584 -7 c33 -20 51 -51 51
-89 0 -40 -19 -64 -66 -85 -41 -19 -46 -19 -78 -4 -63 30 -77 116 -27 166 34
34 74 38 120 12z m-4335 -55 c8 -14 7 -21 -6 -34 -30 -30 -75 9 -48 42 16 18
39 15 54 -8z m2929 -47 l-2 -41 39 0 c58 0 105 -44 105 -99 0 -32 -7 -47 -35
-76 -49 -50 -100 -47 -139 11 -19 27 -24 49 -26 109 -1 41 -5 78 -8 82 -13 13
-7 56 11 69 14 10 21 10 37 -1 15 -10 20 -23 18 -54z m-144 -63 c-1 -86 -3
-95 -9 -56 -5 26 -7 66 -5 90 2 24 4 49 4 56 1 6 3 12 6 12 3 0 4 -46 4 -102z
m1631 -43 c29 -35 -26 -85 -58 -53 -13 13 -16 50 -5 61 12 12 50 7 63 -8z
m-776 -70 c-4 -8 -10 -15 -15 -15 -5 0 -9 7 -9 15 0 8 7 15 15 15 9 0 12 -6 9
-15z m-473 -138 c14 -65 31 -123 36 -128 7 -7 16 -5 28 7 9 9 20 13 23 8 4 -5
14 -9 22 -9 8 0 16 -10 18 -22 3 -19 7 -21 22 -13 14 7 25 7 39 -2 16 -10 23
-9 39 5 25 22 49 22 62 -2 13 -25 13 -27 -6 -45 -21 -22 -40 -20 -64 7 -16 16
-19 17 -15 5 5 -12 2 -18 -8 -18 -8 0 -14 -8 -13 -17 1 -13 -5 -17 -19 -15
-11 2 -26 4 -34 4 -8 1 -16 9 -18 18 -3 11 -14 17 -34 16 -24 -1 -29 -5 -29
-26 0 -14 7 -38 15 -54 21 -39 21 -138 0 -130 -8 3 -17 21 -21 40 -5 25 -11
34 -26 34 -30 0 -58 19 -58 38 0 23 19 42 42 42 10 0 18 6 18 13 0 6 -18 86
-40 176 -46 186 -46 194 -23 189 13 -2 24 -31 44 -121z m501 90 c15 -12 15
-14 -4 -26 -17 -10 -22 -10 -34 6 -7 10 -14 21 -14 26 0 11 33 8 52 -6z m8516
-56 c78 -31 132 -102 132 -173 -1 -62 -46 -168 -92 -215 -60 -61 -156 -91
-233 -74 -52 12 -105 46 -105 67 0 6 -7 25 -16 42 -27 55 -29 132 -5 203 28
86 52 119 103 146 54 28 153 30 216 4z m-12910 -30 c5 -32 -23 -54 -49 -40
-21 11 -26 55 -6 63 27 11 52 1 55 -23z m763 -22 c35 -35 2 -82 -42 -59 -23
13 -25 43 -3 64 20 20 20 20 45 -5z m3009 -137 l22 -18 -20 -24 c-17 -20 -24
-23 -39 -14 -23 14 -28 41 -13 59 16 19 23 19 50 -3z m-401 -81 c49 -47 55
-85 16 -103 -54 -24 -141 53 -115 102 10 18 37 39 52 40 3 0 25 -18 47 -39z
m-2756 -1 c7 -28 -19 -58 -55 -62 -25 -2 -34 -9 -38 -28 -8 -35 -54 -40 -72
-8 -8 14 -22 23 -37 23 -31 0 -50 28 -35 53 20 31 79 25 79 -8 0 -6 3 -10 8
-10 4 0 15 0 25 0 11 0 24 11 30 25 20 44 85 54 95 15z m4721 -22 c14 -39 -6
-78 -38 -78 -43 0 -61 57 -29 92 23 26 56 19 67 -14z m-1666 -34 c27 -19 28
-45 2 -69 -23 -21 -69 -13 -71 13 -2 27 2 46 13 60 14 16 29 15 56 -4z m2829
-191 c-2 -38 -3 -7 -3 67 0 74 1 105 3 68 2 -38 2 -98 0 -135z m-2303 146 c15
-12 26 -30 26 -44 0 -17 4 -23 14 -19 18 7 56 -34 56 -61 0 -11 -7 -31 -16
-44 -17 -23 -52 -26 -96 -6 -15 6 -18 2 -18 -28 0 -20 -4 -39 -10 -42 -6 -4
-10 16 -10 53 0 57 -1 60 -28 65 -32 6 -57 45 -48 73 7 20 73 72 92 73 6 1 23
-8 38 -20z m-4378 -31 c36 -35 40 -76 12 -118 -34 -50 -70 -65 -119 -51 -129
39 -89 213 45 197 23 -3 49 -14 62 -28z m5309 -3 c0 -30 -39 -27 -43 3 -3 20
0 23 20 20 15 -2 23 -10 23 -23z m-2330 -30 c0 -26 -3 -30 -29 -30 -36 0 -56
26 -36 50 8 9 24 15 39 13 22 -2 26 -8 26 -33z m712 -27 c-3 -8 -6 -5 -6 6 -1
11 2 17 5 13 3 -3 4 -12 1 -19z m3280 -480 c-1 -90 -3 -19 -3 157 0 176 2 249
3 163 2 -86 2 -230 0 -320z m5823 426 c14 -4 40 -22 57 -40 18 -18 42 -36 54
-39 32 -10 74 -56 71 -76 -2 -10 6 -19 20 -23 36 -9 46 -7 51 12 3 10 5 6 6
-10 0 -16 6 -28 11 -28 6 0 10 8 8 18 -4 25 89 25 114 0 10 -10 25 -18 34 -18
22 0 71 -52 68 -72 -1 -10 1 -17 4 -17 27 4 44 -5 52 -26 5 -14 15 -25 21 -25
6 0 23 -12 39 -27 59 -59 54 -59 114 16 60 76 108 101 212 116 150 20 339 -74
404 -201 23 -45 25 -59 23 -173 -1 -134 -1 -135 57 -163 31 -15 51 -26 110
-60 8 -4 24 -12 35 -17 11 -6 40 -24 65 -40 25 -17 50 -31 56 -31 7 0 14 -7
18 -15 3 -8 14 -15 24 -15 11 0 31 -9 46 -21 14 -11 48 -26 74 -32 26 -7 45
-16 44 -21 -5 -13 19 -26 50 -26 15 0 30 -4 33 -10 3 -5 18 -10 32 -10 15 0
35 -7 45 -16 14 -14 20 -14 33 -4 12 10 15 10 15 -4 0 -11 9 -16 30 -16 17 0
47 -8 68 -19 20 -10 64 -27 97 -37 33 -10 67 -24 76 -31 8 -7 23 -13 32 -13 9
0 17 -4 17 -9 0 -5 20 -19 43 -30 24 -12 49 -31 56 -44 6 -12 18 -33 26 -46
15 -27 5 -61 -20 -61 -7 0 -17 -9 -20 -20 -5 -16 -16 -20 -58 -22 -29 -1 -68
-2 -87 -3 -19 -1 -42 4 -50 10 -8 7 -37 18 -65 25 -29 8 -62 25 -77 41 -15 16
-39 31 -52 35 -14 3 -27 12 -30 20 -3 8 -10 14 -17 14 -6 0 -31 18 -56 40 -27
23 -60 42 -82 46 -20 4 -44 13 -53 22 -10 8 -18 12 -18 8 0 -4 -12 -1 -27 7
-36 19 -152 47 -193 47 -17 0 -41 5 -53 11 -11 7 -47 13 -80 14 -32 1 -63 7
-70 14 -6 6 -28 11 -48 11 -21 0 -42 7 -50 16 -7 8 -21 13 -30 11 -10 -3 -17
-2 -16 2 3 8 -5 11 -55 22 -60 14 -98 32 -98 46 0 18 -19 16 -26 -2 -4 -8 -15
-15 -26 -15 -10 0 -17 4 -13 9 3 5 1 12 -5 16 -5 3 -10 2 -10 -4 0 -5 -3 -17
-7 -27 -4 -12 -3 -15 5 -10 7 4 18 -6 28 -28 10 -19 25 -37 35 -39 12 -3 19
-14 19 -29 -1 -21 -2 -22 -14 -5 -17 22 -42 22 -50 0 -5 -12 -9 -14 -14 -6
-10 15 -86 43 -118 43 -14 0 -32 4 -42 9 -92 51 -225 104 -263 107 -48 3 -223
66 -249 89 -10 9 -58 15 -155 18 -85 3 -160 11 -190 21 -49 15 -66 27 -154
107 -25 22 -59 46 -76 53 -36 15 -151 127 -160 157 -10 30 2 68 31 94 23 21
24 28 18 74 -5 36 -15 61 -35 84 -16 17 -31 40 -35 50 -3 9 -10 17 -15 17 -19
0 3 45 42 85 22 22 39 43 39 47 0 5 6 8 13 8 6 0 24 15 39 34 16 20 39 37 55
39 36 6 161 0 193 -9z m-9090 -89 c0 -56 -10 -91 -21 -73 -10 16 -12 122 -2
131 12 12 23 -16 23 -58z m320 -2 c0 -29 -17 -38 -28 -16 -13 25 5 74 18 53 5
-8 10 -25 10 -37z m-360 -8 c0 -44 -15 -60 -26 -30 -5 12 15 75 23 75 2 0 3
-20 3 -45z m7543 -25 c110 -49 159 -190 103 -298 -15 -30 -85 -82 -110 -82 -8
0 -18 -4 -21 -10 -9 -15 -91 -12 -133 5 -44 19 -78 49 -100 90 -19 36 -24 201
-6 213 6 4 16 17 22 29 17 30 108 73 158 73 23 0 62 -9 87 -20z m-7673 -20 c0
-5 -4 -10 -10 -10 -5 0 -10 5 -10 10 0 6 5 10 10 10 6 0 10 -4 10 -10z m-2982
-12 c30 -30 -4 -77 -41 -57 -29 17 -15 69 18 69 6 0 16 -5 23 -12z m2476 -14
c22 -9 20 -51 -3 -64 -34 -18 -67 30 -39 58 14 14 20 14 42 6z m497 -47 c-14
-14 -25 -2 -15 15 5 7 9 16 10 21 4 20 7 20 11 -2 3 -13 0 -28 -6 -34z m4474
21 c32 -38 29 -81 -11 -115 -49 -44 -127 -15 -140 53 -9 46 35 94 86 94 31 0
44 -6 65 -32z m-5807 -12 c-4 -25 -36 -34 -44 -12 -8 21 13 46 32 39 8 -3 14
-15 12 -27z m-2050 2 c16 -16 15 -53 -2 -68 -23 -18 -61 -8 -64 18 -2 12 1 22
7 22 6 0 11 8 11 18 0 14 -2 15 -10 2 -5 -8 -10 -10 -10 -4 0 26 46 34 68 12z
m3552 -108 l-7 -75 -1 100 c0 55 3 89 7 75 4 -14 4 -59 1 -100z m3646 100 c40
-16 82 -64 89 -103 19 -102 -117 -170 -196 -99 -27 24 -33 37 -37 85 -4 54 -3
58 31 92 37 37 65 43 113 25z m-2926 -28 c0 -4 10 -12 23 -17 16 -7 21 -17 19
-35 -1 -14 -7 -26 -12 -28 -6 -2 -10 -10 -10 -18 0 -23 -54 -17 -79 10 -29 30
-20 71 17 85 34 12 42 13 42 3z m-572 -18 c30 -21 28 -54 -5 -80 -25 -20 -26
-25 -15 -43 17 -30 15 -55 -8 -76 -11 -10 -20 -28 -20 -40 0 -26 -24 -50 -40
-40 -14 9 -13 21 6 39 14 15 14 18 -6 34 -30 24 -48 161 -22 169 6 3 12 -2 12
-11 0 -9 4 -16 9 -16 4 0 6 11 4 23 -5 27 19 57 45 57 10 0 28 -7 40 -16z
m-108 -4 c0 -5 -2 -10 -4 -10 -3 0 -8 5 -11 10 -3 6 -1 10 4 10 6 0 11 -4 11
-10z m-204 -63 c-1 -17 -6 -23 -18 -19 -14 3 -15 8 -7 23 14 26 27 24 25 -4z
m-427 -31 c20 -24 -14 -67 -40 -50 -13 8 -11 38 3 52 15 15 23 15 37 -2z
m1283 -50 c4 -6 8 -28 8 -49 0 -37 -1 -38 -32 -35 -40 4 -58 42 -40 83 10 21
17 25 35 19 12 -4 25 -12 29 -18z m-695 -98 c-2 -13 -4 -3 -4 22 0 25 2 35 4
23 2 -13 2 -33 0 -45z m-1062 7 c0 -27 -3 -30 -30 -30 -21 0 -31 5 -33 18 -6
33 6 49 35 45 24 -3 28 -8 28 -33z m1425 -44 c0 -28 -28 -47 -48 -34 -24 15
-27 44 -7 59 22 17 55 1 55 -25z m-525 10 c-3 -6 -11 -11 -16 -11 -5 0 -4 6 3
14 14 16 24 13 13 -3z m-2871 -17 c19 -18 20 -28 6 -55 -12 -21 -40 -25 -58
-7 -19 19 -15 66 6 71 29 8 30 8 46 -9z m2911 -34 c10 -16 -24 -62 -42 -58
-30 6 -38 34 -19 62 14 22 20 24 36 16 10 -6 22 -15 25 -20z m6626 0 c28 -11
57 -26 64 -33 8 -6 32 -25 54 -41 22 -16 42 -40 46 -55 4 -14 12 -33 19 -41 7
-8 19 -49 26 -90 10 -65 10 -84 -4 -137 -25 -96 -59 -151 -116 -190 -125 -84
-208 -95 -336 -43 -42 16 -95 46 -118 65 -29 23 -53 35 -74 35 -17 0 -47 7
-66 16 -28 14 -37 26 -50 68 -20 65 -26 142 -14 183 9 32 15 37 101 72 17 6
34 25 42 45 14 32 98 116 117 116 5 0 28 9 51 19 56 25 72 28 144 30 41 1 80
-6 114 -19z m-5753 -66 c17 -36 5 -74 -23 -74 -30 0 -51 26 -46 59 4 36 9 41
35 41 15 0 27 -9 34 -26z m-912 -19 c-3 -8 -1 -15 4 -15 6 0 10 -6 10 -14 0
-7 7 -19 15 -26 8 -7 15 -24 15 -38 0 -31 -37 -92 -55 -92 -24 0 -46 62 -43
119 3 43 8 54 28 66 33 17 33 17 26 0z m322 -41 c14 -10 22 -25 22 -45 0 -48
-15 -66 -52 -65 -32 1 -33 2 -36 51 -3 38 1 52 14 62 22 16 25 16 52 -3z
m-3080 -50 c31 -21 27 -68 -6 -72 -43 -6 -71 45 -40 76 15 15 19 15 46 -4z
m370 -3 c30 -19 -7 -71 -42 -58 -19 7 -22 53 -3 60 19 8 31 8 45 -2z m-1009
-25 c16 -20 -3 -56 -29 -56 -26 0 -45 36 -29 56 6 8 19 14 29 14 10 0 23 -6
29 -14z m4031 -1 c17 -20 5 -45 -20 -45 -11 0 -23 7 -26 15 -6 15 11 45 26 45
4 0 13 -7 20 -15z m-437 -53 c4 -26 9 -75 13 -109 6 -59 8 -63 43 -80 61 -31
69 -108 10 -108 -13 0 -27 -4 -31 -9 -11 -16 3 -36 27 -36 12 0 27 -6 32 -12
16 -20 24 -66 13 -73 -14 -9 -12 -19 9 -43 34 -40 8 -162 -36 -162 -10 0 -13
-10 -11 -32 2 -25 8 -33 23 -33 12 0 21 -8 23 -20 2 -11 5 -27 8 -35 4 -13 6
-13 14 0 7 11 10 11 10 2 0 -7 -13 -21 -30 -30 -36 -20 -38 -32 -7 -32 61 0
74 -79 17 -99 -31 -10 -31 -10 -28 -78 3 -64 4 -68 28 -71 38 -6 60 -31 60
-68 0 -35 -21 -54 -58 -54 -21 0 -51 -38 -53 -67 -1 -10 -5 -4 -9 12 -6 24 -8
17 -9 -32 -1 -65 -24 -140 -48 -160 -21 -17 -46 -104 -33 -117 14 -14 12 -42
-3 -55 -11 -8 -18 -6 -32 9 -17 19 -17 21 -1 39 12 13 15 27 11 42 -5 16 -9
18 -15 8 -5 -7 -7 -16 -4 -20 2 -4 -3 -9 -11 -13 -8 -3 -17 -1 -21 5 -3 6 -19
0 -39 -15 -19 -15 -40 -26 -47 -26 -7 0 -35 16 -63 35 -27 20 -66 46 -85 59
-97 65 -131 161 -102 284 13 55 26 69 123 134 46 31 79 60 79 70 0 9 5 20 10
23 6 3 10 25 10 48 0 30 3 38 11 30 9 -9 16 -9 30 0 40 25 77 -33 43 -68 -9
-9 -25 -14 -35 -12 -11 3 -19 2 -19 -3 0 -4 11 -11 25 -14 14 -4 31 -18 37
-32 8 -17 14 -21 19 -12 10 15 39 -7 40 -31 1 -9 7 2 13 24 l13 39 6 -32 c7
-37 41 -45 52 -13 9 31 -29 607 -42 621 -2 2 -8 -2 -13 -10 -7 -10 -10 7 -10
53 0 40 4 66 9 62 6 -3 6 7 0 27 -5 18 -9 103 -9 189 0 149 1 157 19 152 14
-3 20 -17 24 -51z m842 -2 c3 -6 -1 -7 -9 -4 -18 7 -21 14 -7 14 6 0 13 -4 16
-10z m-1685 -60 c16 -29 -4 -60 -38 -60 -31 0 -52 16 -52 40 0 41 70 57 90 20z
m927 -15 c1 -15 4 -34 7 -41 8 -20 -25 -26 -45 -8 -23 21 -24 33 -3 62 20 29
38 24 41 -13z m-257 -5 c4 -8 15 -31 24 -51 25 -51 18 -83 -17 -87 -32 -4 -57
13 -57 38 0 10 -7 23 -15 30 -18 15 -20 61 -3 78 17 17 59 11 68 -8z m1030 11
c0 -6 -5 -13 -10 -16 -15 -9 -43 3 -35 15 8 13 45 13 45 1z m-263 -32 c16 -16
5 -39 -18 -39 -24 0 -37 29 -18 41 18 11 23 11 36 -2z m3868 -40 c64 -63 22
-165 -67 -163 -54 2 -88 40 -88 99 0 97 85 132 155 64z m-4255 11 c14 -27 4
-57 -20 -65 -39 -12 -68 30 -44 63 19 28 50 28 64 2z m-555 -95 c0 -27 -3 -30
-30 -30 -21 0 -31 5 -33 18 -6 33 6 49 35 45 24 -3 28 -8 28 -33z m-2181 3 c8
-13 8 -23 0 -35 -28 -45 -89 -9 -64 38 13 24 48 22 64 -3z m610 -40 c23 -38
-35 -78 -61 -42 -17 23 -16 29 3 49 20 19 43 16 58 -7z m2359 -12 c3 -8 0 -21
-6 -30 -11 -15 -15 -15 -31 -3 -12 9 -17 20 -13 31 8 20 43 21 50 2z m9847
-26 c0 -21 -15 -27 -25 -10 -3 6 -1 10 5 10 6 0 8 5 5 10 -3 6 -1 10 4 10 6 0
11 -9 11 -20z m-10832 -23 c2 -9 -3 -24 -12 -32 -23 -23 -32 -18 -10 6 18 20
18 21 -1 36 -20 15 -20 15 0 11 11 -2 21 -11 23 -21z m316 -40 c-3 -9 -11 -17
-16 -17 -6 0 -7 7 -4 16 3 9 6 21 6 27 0 8 3 8 10 1 6 -6 8 -18 4 -27z m-1138
-3 c11 -42 -36 -61 -56 -23 -9 15 -8 24 1 35 19 23 48 17 55 -12z m-1712 -50
c8 -21 -11 -44 -36 -44 -21 0 -33 22 -24 45 7 20 52 19 60 -1z m2556 -53 c14
-28 -13 -55 -41 -41 -22 12 -25 30 -7 48 18 18 36 15 48 -7z m492 -39 c1 -23
-2 -45 -5 -49 -4 -3 -7 18 -7 47 0 62 9 63 12 2z m477 -31 c8 -14 7 -22 -4
-31 -19 -16 -45 -6 -45 18 0 36 33 45 49 13z m1371 4 c25 -30 -16 -79 -46 -54
-15 12 -19 51 -7 62 11 12 40 8 53 -8z m-3809 -77 c7 -13 10 -25 8 -27 -5 -4
17 -17 44 -25 22 -7 19 -44 -5 -59 -20 -13 -48 6 -48 32 0 10 -14 24 -32 32
-38 17 -44 31 -23 53 23 22 42 20 56 -6z m1499 -17 c0 -11 -4 -22 -8 -25 -14
-9 -35 12 -29 28 9 23 37 20 37 -3z m-1940 -76 c18 -21 3 -55 -24 -55 -33 0
-50 23 -36 49 12 24 42 27 60 6z m240 -18 c0 -5 -4 -5 -10 -2 -5 3 -10 14 -10
23 0 15 2 15 10 2 5 -8 10 -19 10 -23z m2108 2 c4 -32 -18 -51 -55 -47 -23 2
-29 9 -31 32 -4 34 12 47 53 44 24 -2 31 -8 33 -29z m687 -105 c0 -22 -5 -29
-19 -29 -10 0 -24 8 -30 18 -9 15 -7 21 9 33 27 20 40 13 40 -22z m-636 -86
c-1 -40 -4 -61 -6 -45 -3 21 -10 27 -29 27 -19 0 -24 5 -24 25 0 20 5 25 25
25 18 0 25 5 25 20 0 11 2 20 5 20 3 0 4 -33 4 -72z m4111 57 c68 -35 92 -124
47 -177 -44 -50 -116 -63 -161 -27 -29 23 -56 68 -56 94 0 32 34 88 64 106 37
23 67 24 106 4z m-6365 -61 c14 -14 14 -19 2 -38 -19 -28 -53 -32 -66 -8 -7
14 -6 25 5 40 18 26 37 28 59 6z m-524 -95 c9 -18 7 -25 -10 -43 -17 -16 -25
-18 -39 -10 -22 14 -27 41 -12 59 18 22 48 18 61 -6z m210 -75 c17 -21 0 -49
-31 -49 -31 0 -48 28 -31 49 8 9 21 16 31 16 10 0 23 -7 31 -16z m2924 -53 c9
-28 -5 -51 -30 -51 -29 0 -39 14 -31 46 8 30 51 34 61 5z m-4044 -127 c26 -31
-25 -70 -56 -44 -18 15 -19 47 -2 53 24 10 45 7 58 -9z m2107 -10 c4 -25 -20
-47 -42 -38 -16 6 -22 45 -9 58 14 14 48 1 51 -20z m1807 -104 c6 -20 -10 -60
-25 -60 -16 0 -41 33 -36 47 3 8 6 19 6 24 0 18 49 9 55 -11z m-510 -150 c-5
-8 -12 -7 -24 4 -10 9 -21 13 -24 9 -4 -3 -7 -2 -7 3 0 6 5 15 12 22 10 10 16
8 31 -7 11 -10 16 -24 12 -31z m540 -40 c3 -5 22 -10 41 -10 37 0 73 -29 100
-82 37 -72 -16 -196 -78 -184 -14 3 -41 1 -59 -4 -29 -9 -37 -7 -62 18 -40 37
-70 108 -61 145 3 16 17 51 31 78 22 41 30 49 54 49 15 0 31 -4 34 -10z
m-2365 -4 c0 -2 3 -11 6 -19 9 -23 -24 -49 -47 -37 -19 10 -26 40 -12 53 7 8
53 10 53 3z m1657 -12 c8 -21 -19 -46 -40 -38 -9 3 -17 17 -17 30 0 19 5 24
25 24 14 0 28 -7 32 -16z m-355 1 c8 -9 -18 -76 -33 -86 -22 -14 -26 -11 -49
28 -21 35 -21 38 -4 50 18 13 76 18 86 8z m1458 -90 c0 -13 -4 -27 -10 -30 -6
-4 -10 8 -10 30 0 22 4 34 10 30 6 -3 10 -17 10 -30z m-753 -36 c12 -47 3 -94
-18 -94 -8 0 -20 -4 -27 -9 -7 -4 -19 -2 -28 5 -11 9 -21 9 -39 1 -19 -9 -27
-8 -40 4 -21 22 -20 58 1 50 18 -7 84 32 84 50 0 15 22 34 40 34 10 0 20 -15
27 -41z m-1372 -49 c-3 -5 -1 -10 4 -10 6 0 11 -4 11 -10 0 -5 -8 -10 -17 -10
-15 0 -16 -2 -3 -10 12 -8 12 -10 -4 -16 -11 -4 -21 -2 -27 7 -5 8 -9 10 -9 4
0 -5 -5 -3 -10 5 -6 10 -4 20 7 32 17 19 59 26 48 8z m1073 -42 c17 -17 15
-43 -4 -59 -31 -26 -70 25 -44 56 15 18 32 19 48 3z m-714 -23 c13 -36 -23
-65 -49 -39 -18 19 -19 26 -3 42 17 17 45 15 52 -3z"/>
<path d="M6226 9625 c-9 -26 -7 -32 5 -12 6 10 9 21 6 23 -2 3 -7 -2 -11 -11z"/>
<path d="M7060 7524 c-192 -64 -192 -74 -4 -74 l134 0 0 55 c0 38 -4 55 -12
55 -7 -1 -60 -16 -118 -36z"/>
<path d="M6148 7511 c-49 -21 -44 -33 15 -38 50 -5 60 7 35 39 -12 14 -17 14
-50 -1z"/>
<path d="M3940 7421 c0 -12 7 -24 15 -28 23 -8 41 -53 37 -89 -3 -28 -10 -35
-63 -59 -37 -16 -63 -35 -68 -48 -13 -33 -31 -115 -31 -137 0 -20 1 -20 26 -4
24 16 27 16 52 -3 39 -29 36 -65 -5 -78 -40 -11 -42 -21 -7 -29 16 -4 29 -17
36 -36 15 -44 39 -37 76 24 20 33 43 57 57 60 26 7 125 103 125 123 0 7 9 17
20 23 37 20 270 264 270 283 0 9 -63 13 -270 15 -269 4 -270 4 -270 -17z m75
-276 c0 -5 -15 -11 -32 -13 -25 -3 -33 1 -33 13 0 12 8 16 33 13 17 -2 32 -7
32 -13z"/>
<path d="M6598 7433 c17 -2 47 -2 65 0 17 2 3 4 -33 4 -36 0 -50 -2 -32 -4z"/>
<path d="M6923 7424 c12 -13 257 -17 257 -5 0 7 -42 11 -132 11 -72 0 -128 -3
-125 -6z"/>
<path d="M5635 7396 c-48 -15 -125 -54 -125 -63 0 -14 104 8 124 25 12 11 35
27 51 35 23 13 26 16 10 16 -11 0 -38 -6 -60 -13z"/>
<path d="M6106 7390 c-22 -11 -45 -20 -52 -20 -6 0 -14 -7 -18 -15 -3 -8 -16
-15 -30 -15 -14 0 -28 -5 -31 -10 -7 -11 42 -13 250 -12 71 0 118 6 160 19 33
11 81 26 108 34 26 7 47 16 47 20 0 6 -238 19 -340 19 -34 -1 -70 -8 -94 -20z"/>
<path d="M6631 7376 c-59 -20 -92 -46 -59 -46 21 0 192 51 203 61 18 18 -81 7
-144 -15z"/>
<path d="M6716 7335 c-76 -24 -143 -48 -148 -53 -7 -7 -8 -36 -4 -75 6 -52 11
-66 26 -70 42 -11 282 -8 296 4 11 9 14 39 14 125 0 137 15 131 -184 69z"/>
<path d="M6508 7333 c-10 -2 -18 -9 -18 -14 0 -15 53 -6 58 9 4 12 -8 14 -40
5z"/>
<path d="M5435 7294 c-20 -15 -20 -16 4 -12 14 2 26 9 29 16 5 16 -9 15 -33
-4z"/>
<path d="M6405 7292 c-37 -3 -233 -70 -260 -89 -11 -7 -28 -13 -38 -13 -14 0
-18 -6 -15 -27 l3 -28 155 -1 c85 -1 187 1 225 5 l70 6 0 70 0 70 -55 5 c-30
3 -68 4 -85 2z"/>
<path d="M6027 7169 c-16 -9 -17 -28 -13 -236 4 -169 9 -228 18 -235 30 -19
38 22 38 208 0 174 -1 184 -21 197 l-21 15 21 7 c14 4 21 15 21 31 0 26 -14
30 -43 13z"/>
<path d="M5975 7139 c-4 -6 -5 -12 -2 -15 2 -3 7 2 10 11 7 17 1 20 -8 4z"/>
<path d="M6095 7092 c-3 -9 -3 -99 1 -200 l7 -184 50 5 c28 2 86 0 130 -4 59
-7 101 -6 164 6 47 8 87 16 89 18 3 2 6 277 4 338 0 15 -20 18 -147 23 -82 4
-180 8 -220 10 -59 4 -73 2 -78 -12z"/>
<path d="M6570 6926 c0 -90 2 -170 5 -178 5 -11 25 -11 123 4 64 9 131 17 149
17 17 1 35 6 39 13 13 21 17 263 5 287 -11 20 -18 21 -166 21 l-155 0 0 -164z"/>
<path d="M4750 6915 l-23 -25 41 20 c46 22 52 30 24 30 -10 0 -29 -11 -42 -25z"/>
<path d="M11040 6800 c0 -5 5 -10 10 -10 6 0 10 5 10 10 0 6 -4 10 -10 10 -5
0 -10 -4 -10 -10z"/>
<path d="M5230 6770 c-18 -12 -2 -12 25 0 13 6 15 9 5 9 -8 0 -22 -4 -30 -9z"/>
<path d="M5213 6730 c-27 -11 -28 -14 -7 -34 22 -23 31 -20 49 14 14 28 14 30
-2 29 -10 0 -28 -4 -40 -9z"/>
<path d="M14193 6413 c9 -2 25 -2 35 0 9 3 1 5 -18 5 -19 0 -27 -2 -17 -5z"/>
<path d="M4450 5482 c0 -4 18 -15 40 -25 27 -11 40 -23 40 -36 0 -16 9 -21 43
-25 23 -3 53 -4 67 -2 14 2 43 4 65 5 l40 1 -46 44 -46 44 -102 0 c-55 0 -101
-3 -101 -6z"/>
<path d="M4950 5220 c0 -5 5 -10 10 -10 6 0 10 5 10 10 0 6 -4 10 -10 10 -5 0
-10 -4 -10 -10z"/>
<path d="M4630 4080 c0 -5 7 -10 15 -10 8 0 15 5 15 10 0 6 -7 10 -15 10 -8 0
-15 -4 -15 -10z"/>
<path d="M4270 3955 c-18 -22 -5 -64 19 -58 16 4 18 10 10 35 -11 39 -14 42
-29 23z"/>
<path d="M5970 1646 c0 -11 30 -66 36 -66 2 0 -3 15 -12 33 -19 36 -24 44 -24
33z"/>
<path d="M6027 1532 c-6 -9 139 -303 159 -322 14 -13 14 -12 6 11 -19 50 -161
318 -165 311z"/>
<path d="M6160 1370 c0 -8 5 -22 10 -30 9 -13 10 -13 10 0 0 8 -5 22 -10 30
-9 13 -10 13 -10 0z"/>
<path d="M5444 5525 c11 -8 25 -15 30 -15 6 0 2 7 -8 15 -11 8 -25 15 -30 15
-6 0 -2 -7 8 -15z"/>
<path d="M5521 5484 c16 -19 135 -74 160 -74 11 0 19 5 19 10 0 6 -5 10 -12
10 -6 0 -21 9 -33 20 -12 11 -47 27 -79 35 -71 19 -71 19 -55 -1z"/>
<path d="M5890 5430 c8 -5 20 -10 25 -10 6 0 3 5 -5 10 -8 5 -19 10 -25 10 -5
0 -3 -5 5 -10z"/>
<path d="M5985 5389 c8 -12 56 -32 62 -25 5 4 -50 36 -62 36 -3 0 -3 -5 0 -11z"/>
<path d="M6086 5352 c-5 -9 76 -52 98 -52 14 0 26 21 26 43 0 13 -48 16 -67 4
-6 -4 -14 -3 -18 3 -7 12 -32 13 -39 2z"/>
<path d="M4651 2454 c0 -11 3 -14 6 -6 3 7 2 16 -1 19 -3 4 -6 -2 -5 -13z"/>
<path d="M5099 12758 c0 -18 -2 -42 -4 -53 -1 -11 -5 -49 -9 -84 -3 -35 -9
-67 -12 -72 -3 -5 2 -9 10 -9 10 0 17 -10 18 -27 1 -16 2 -41 4 -58 1 -16 2
-46 3 -65 l2 -35 22 27 c12 15 39 72 60 127 37 94 55 117 89 112 15 -2 17 38
3 65 -8 16 -15 46 -15 67 l0 37 -85 0 -85 0 -1 -32z"/>
<path d="M5419 12763 c0 -16 -2 -35 -4 -43 -22 -84 -33 -115 -44 -115 -23 0
-30 -31 -30 -127 0 -87 2 -99 20 -108 29 -16 25 -63 -7 -80 -21 -12 -25 -19
-20 -42 3 -15 3 -35 -1 -44 -10 -26 -22 5 -16 43 3 20 1 33 -5 33 -10 0 -20
-21 -23 -45 0 -5 -5 -15 -10 -21 -16 -20 -67 -188 -90 -301 -20 -97 -23 -145
-19 -300 1 -48 -3 -73 -12 -73 -5 0 -4 -8 1 -19 6 -10 8 -21 5 -24 -3 -3 1
-16 10 -29 19 -27 20 -57 4 -93 -10 -22 -8 -28 9 -45 12 -10 24 -33 28 -50 6
-26 9 -29 21 -19 8 7 13 18 10 26 -3 8 -1 33 4 56 36 153 59 244 65 260 4 10
3 17 -4 17 -14 0 -14 42 1 75 7 17 17 24 26 20 16 -6 32 10 32 33 0 6 -7 12
-16 12 -8 0 -13 -4 -9 -9 9 -15 -14 -23 -28 -10 -9 9 -12 30 -9 66 4 43 1 54
-13 59 -45 18 -29 104 20 104 26 0 65 -42 65 -71 0 -30 44 -25 58 6 6 14 16
25 22 25 5 0 10 9 10 19 0 11 5 23 10 26 6 3 10 16 10 28 0 12 7 35 15 50 8
16 9 25 3 21 -8 -5 -9 -1 -5 10 4 10 7 22 7 27 0 6 5 7 10 4 6 -3 10 5 10 19
0 29 34 123 54 151 9 13 25 18 49 17 45 -2 55 13 29 41 -14 15 -21 35 -20 64
0 22 -3 46 -7 53 -4 6 -3 16 2 23 6 7 18 39 27 72 10 33 24 77 32 98 18 48 18
47 -10 47 -14 0 -32 10 -40 22 -14 20 -14 24 -1 45 l15 23 -120 0 -120 0 -1
-27z m-39 -563 c0 -5 -4 -10 -10 -10 -5 0 -10 5 -10 10 0 6 5 10 10 10 6 0 10
-4 10 -10z m-51 -172 c-1 -55 -5 -50 -11 15 -2 20 0 37 4 37 4 0 7 -24 7 -52z"/>
<path d="M4976 11999 c-4 -14 -20 -105 -21 -124 0 -5 9 -10 20 -10 21 0 33 28
34 80 0 35 -25 77 -33 54z"/>
<path d="M4920 11761 c0 -16 33 -51 47 -51 18 0 16 14 -4 32 -28 23 -43 30
-43 19z"/>
<path d="M6176 11608 c-17 -24 -20 -38 -8 -38 4 0 15 14 24 30 20 35 7 41 -16
8z"/>
<path d="M4920 11610 c0 -5 5 -10 11 -10 5 0 7 5 4 10 -3 6 -8 10 -11 10 -2 0
-4 -4 -4 -10z"/>
<path d="M6042 11553 c-11 -27 -39 -88 -62 -136 -23 -49 -39 -91 -36 -94 8 -9
9 -8 55 85 72 144 91 192 77 192 -8 0 -23 -21 -34 -47z"/>
<path d="M6106 11555 c-9 -26 -7 -32 5 -12 6 10 9 21 6 23 -2 3 -7 -2 -11 -11z"/>
<path d="M6045 11343 c-99 -205 -121 -253 -107 -238 22 24 219 425 209 425 -7
0 -52 -84 -102 -187z"/>
<path d="M6166 11474 c-10 -38 0 -41 12 -5 6 17 7 31 3 31 -5 0 -12 -12 -15
-26z"/>
<path d="M6124 11384 c-9 -21 -20 -47 -25 -56 -6 -10 -7 -18 -5 -18 9 0 58
102 52 108 -3 3 -13 -12 -22 -34z"/>
<path d="M5882 11206 c-23 -49 -40 -91 -38 -94 7 -7 88 158 83 171 -2 7 -22
-28 -45 -77z"/>
<path d="M5173 11213 c-7 -3 -13 -12 -13 -21 0 -15 2 -15 17 1 18 18 16 27 -4
20z"/>
<path d="M4951 10918 c0 -18 4 -42 8 -52 5 -13 7 -1 7 32 -1 29 -4 52 -8 52
-5 0 -8 -15 -7 -32z"/>
<path d="M4806 10725 c-3 -9 0 -15 9 -15 16 0 20 16 6 24 -5 3 -11 -1 -15 -9z"/>
<path d="M4957 10590 c-3 -11 -1 -20 4 -20 5 0 9 9 9 20 0 11 -2 20 -4 20 -2
0 -6 -9 -9 -20z"/>
<path d="M4944 9876 c-8 -22 3 -33 18 -18 9 9 9 15 0 24 -9 9 -13 7 -18 -6z"/>
<path d="M73 6493 c9 -2 25 -2 35 0 9 3 1 5 -18 5 -19 0 -27 -2 -17 -5z"/>
<path d="M5143 1650 c4 -17 1 -35 -6 -42 -7 -8 -13 -51 -14 -113 -1 -55 -4
-149 -7 -210 -3 -80 -1 -117 9 -135 8 -14 21 -65 30 -115 22 -126 55 -266 66
-287 6 -11 21 -18 37 -18 54 0 72 -55 28 -83 l-24 -16 18 -67 c10 -37 22 -69
27 -73 11 -8 33 -116 33 -165 0 -20 7 -50 16 -67 8 -16 12 -38 9 -48 -3 -10 1
-23 9 -30 7 -6 19 -33 25 -59 7 -26 17 -64 23 -84 l11 -38 119 0 118 0 0 26
c0 14 4 23 10 19 6 -3 10 3 10 14 0 26 17 28 23 4 4 -15 5 -15 6 2 0 11 -18
74 -40 140 -52 150 -59 232 -23 266 26 25 17 51 -14 42 -10 -2 -29 0 -44 6
-23 9 -31 26 -63 128 -21 65 -42 126 -46 135 -5 10 -9 22 -9 28 0 17 -34 90
-42 90 -5 0 -8 7 -8 16 0 12 -5 14 -17 8 -28 -12 -74 -8 -84 7 -5 8 -8 28 -7
44 1 17 -1 36 -5 43 -5 6 -3 20 2 29 10 17 11 16 17 -4 6 -23 24 -32 24 -12 0
5 4 8 9 5 11 -7 -1 46 -20 89 -12 28 -13 29 -16 8 -3 -13 -8 -23 -13 -23 -6 0
-5 11 0 26 6 14 10 30 10 35 0 17 -15 9 -25 -13 -7 -16 -20 -24 -42 -26 -27
-3 -35 1 -44 22 -10 20 -8 30 10 59 11 19 21 49 21 67 0 19 7 41 15 50 13 14
13 23 5 46 -7 16 -10 57 -8 91 3 58 1 64 -28 90 -16 15 -43 49 -58 76 -31 54
-41 60 -33 17z m192 -818 c1 -26 0 -41 -3 -34 -3 10 -7 10 -17 2 -8 -6 -26
-10 -42 -8 -23 2 -29 8 -31 35 -2 24 2 34 18 43 12 6 28 9 35 6 8 -3 17 -1 21
5 11 18 18 0 19 -49z m73 -74 c7 -7 12 -24 12 -40 0 -48 -66 -72 -92 -34 -12
17 -9 61 4 74 15 15 61 15 76 0z m-2 -156 c37 -24 36 -72 -2 -96 -21 -15 -25
-14 -49 7 -31 26 -27 66 8 84 29 14 30 14 43 5z"/>
<path d="M4931 1204 c-1 -6 -13 -17 -27 -25 -24 -12 -26 -18 -21 -59 8 -75
-22 -108 -43 -46 -6 19 -18 37 -26 40 -11 4 -15 17 -13 38 3 34 -3 42 -23 36
-9 -3 -9 -15 1 -49 20 -69 49 -109 78 -109 15 0 23 -5 20 -12 -2 -7 -12 -12
-21 -12 -10 1 -15 -1 -12 -4 3 -3 1 -11 -5 -19 -16 -19 8 -17 28 2 12 12 18
13 29 4 17 -14 37 -86 28 -100 -3 -6 4 -22 17 -35 13 -14 23 -37 24 -52 0 -15
3 -26 8 -24 4 1 13 2 21 2 8 0 21 7 29 15 13 13 13 20 0 62 -8 27 -17 95 -20
152 -5 83 -10 111 -27 137 -12 17 -26 40 -33 50 -6 11 -12 14 -12 8z"/>
<path d="M4850 866 c0 -15 18 -31 26 -23 7 7 -7 37 -17 37 -5 0 -9 -6 -9 -14z"/>
<path d="M5033 671 c-6 -10 -23 -18 -38 -18 -14 0 -28 -3 -32 -6 -12 -12 8
-39 36 -50 17 -6 32 -21 35 -32 3 -12 18 -35 32 -51 38 -40 36 -71 -8 -157 -5
-10 -12 -41 -15 -68 -5 -45 -4 -49 15 -49 11 0 22 7 26 15 8 21 50 19 71 -5
15 -17 16 -24 5 -50 -9 -21 -19 -30 -36 -30 -31 0 -48 -34 -45 -91 1 -26 -2
-50 -8 -54 -29 -17 -3 -25 88 -25 l100 0 11 57 c7 31 17 68 23 81 10 22 8 28
-30 61 -31 27 -46 50 -58 91 -9 30 -25 78 -37 105 -11 28 -27 70 -36 95 -8 25
-20 56 -27 70 -7 14 -16 43 -20 65 -7 39 -20 65 -34 65 -3 0 -11 -8 -18 -19z"/>
<path d="M5730 23 c0 -13 5 -23 10 -23 13 0 13 11 0 30 -8 12 -10 11 -10 -7z"/>
<path d="M5690 15 c0 -8 4 -15 10 -15 5 0 7 7 4 15 -8 19 -14 19 -14 0z"/>
</g>
</svg>
